<?xml version="1.0" standalone="no"?>
<!DOCTYPE svg PUBLIC "-//W3C//DTD SVG 20010904//EN"
 "http://www.w3.org/TR/2001/REC-SVG-20010904/DTD/svg10.dtd">
<svg version="1.0" xmlns="http://www.w3.org/2000/svg"
 width="1200.000000pt" height="1200.000000pt" viewBox="0 0 1200.000000 1200.000000"
 preserveAspectRatio="xMidYMid meet">

<g transform="translate(0.000000,1200.000000) scale(0.100000,-0.100000)"
fill="#000000" stroke="none">
<path d="M5730 10583 c-475 -37 -883 -120 -1270 -260 -1022 -369 -1873 -1077
-2424 -2015 -92 -157 -229 -441 -299 -618 -218 -553 -322 -1103 -321 -1695 1
-736 158 -1404 485 -2057 359 -717 891 -1318 1559 -1762 212 -141 285 -184
496 -289 501 -251 1015 -399 1599 -463 219 -24 679 -24 895 -1 447 49 835 142
1220 292 1178 458 2126 1395 2596 2568 252 630 367 1333 324 1979 -53 777
-260 1448 -648 2098 -560 937 -1449 1649 -2498 1999 -458 153 -970 233 -1459
229 -115 -1 -230 -3 -255 -5z m1215 -652 c22 -7 54 -17 70 -23 17 -5 40 -12
53 -15 12 -3 22 -12 22 -19 0 -8 8 -14 18 -14 11 0 27 -9 37 -20 10 -11 26
-20 37 -20 10 0 18 -4 18 -9 0 -5 9 -13 21 -16 11 -4 36 -22 56 -41 23 -23 44
-34 64 -34 29 0 40 -15 17 -22 -16 -6 -1 -27 28 -38 13 -5 24 -16 24 -24 0 -8
9 -21 19 -28 18 -13 48 -57 74 -108 6 -14 30 -47 52 -73 26 -31 40 -58 41 -80
1 -17 2 -37 3 -44 1 -7 10 -21 22 -31 11 -11 21 -30 23 -43 2 -13 8 -37 15
-52 6 -16 11 -51 11 -78 0 -27 4 -57 9 -67 14 -27 31 -109 31 -146 0 -18 -7
-53 -15 -77 -9 -23 -15 -56 -14 -73 1 -17 -17 -87 -40 -156 -23 -68 -41 -128
-41 -133 0 -15 -33 -80 -56 -112 -12 -16 -36 -59 -53 -94 -17 -35 -34 -67 -39
-70 -5 -3 -16 -26 -24 -51 -9 -27 -23 -49 -36 -55 -12 -5 -22 -15 -22 -22 0
-7 -18 -17 -40 -23 -40 -11 -51 -24 -27 -33 18 -8 -49 -68 -67 -61 -10 4 -17
-3 -22 -20 -3 -14 -12 -26 -19 -26 -6 0 -31 -15 -55 -32 -65 -50 -104 -77
-111 -77 -4 -1 -6 7 -5 16 0 10 -9 22 -21 28 -13 5 -23 16 -23 23 0 7 -4 10
-10 7 -18 -11 -10 -39 18 -62 l27 -22 -28 -23 c-16 -13 -43 -35 -60 -50 -17
-16 -37 -28 -44 -28 -8 0 -16 -7 -19 -15 -4 -8 -13 -15 -20 -15 -8 0 -19 -11
-24 -25 -5 -14 -14 -25 -20 -25 -5 0 -10 -7 -10 -16 0 -11 -6 -15 -20 -11 -11
3 -23 1 -26 -4 -3 -6 -11 -5 -20 2 -17 14 -29 6 -19 -11 4 -7 18 -9 31 -6 13
4 24 4 24 1 0 -3 -22 -33 -50 -66 -46 -58 -90 -160 -90 -210 0 -31 -15 -29
-43 6 -17 21 -27 46 -27 67 0 25 -3 29 -10 18 -5 -8 -10 -36 -10 -62 0 -39 4
-49 27 -66 31 -23 34 -62 8 -112 -8 -16 -33 -87 -56 -157 -22 -70 -45 -136
-50 -147 -23 -41 -35 -105 -35 -176 l1 -75 40 -3 c32 -2 50 4 90 33 28 19 75
52 105 73 30 20 57 39 60 42 19 19 109 89 128 99 12 6 22 18 22 26 0 8 3 15 8
15 4 0 46 38 95 85 48 47 92 85 97 85 5 0 19 14 32 30 16 22 27 28 41 24 15
-5 19 -3 14 9 -4 10 20 61 58 127 36 61 65 114 65 116 0 3 9 18 19 33 11 15
27 47 36 72 9 24 21 53 26 64 13 31 80 227 86 253 3 12 10 22 16 22 6 0 7 3 4
6 -3 4 0 16 8 28 8 11 15 30 15 41 0 11 6 29 14 40 7 11 37 67 66 125 30 58
65 123 79 145 35 56 61 107 61 121 0 7 24 32 53 55 28 24 89 80 134 124 44 44
87 85 95 90 21 16 99 55 110 55 5 0 24 11 42 25 18 14 36 25 39 25 3 0 18 11
32 24 30 28 174 77 233 79 23 1 44 7 46 14 3 8 23 11 58 8 29 -2 104 -4 166
-5 89 0 112 -3 112 -14 0 -17 22 -26 60 -26 16 0 32 -5 35 -11 4 -6 13 -8 21
-5 17 6 114 -32 134 -53 8 -9 23 -28 33 -43 12 -19 26 -28 44 -28 27 0 123
-83 123 -106 0 -7 16 -31 35 -54 19 -23 35 -48 35 -55 0 -7 6 -18 13 -24 8 -6
22 -37 31 -68 16 -50 37 -102 67 -164 4 -9 11 -34 15 -55 3 -22 11 -44 16 -51
18 -23 26 -179 12 -233 -7 -27 -14 -104 -15 -170 -1 -67 -6 -123 -10 -126 -5
-2 -6 -10 -3 -17 2 -7 -4 -22 -16 -32 -25 -23 -27 -85 -2 -112 9 -11 37 -28
62 -38 25 -10 52 -24 60 -31 8 -6 27 -14 41 -17 14 -4 37 -17 52 -29 14 -13
49 -39 78 -58 66 -45 88 -68 105 -107 8 -18 21 -33 28 -33 8 0 18 -9 21 -20 3
-11 15 -25 26 -30 10 -6 19 -17 19 -25 0 -7 3 -15 8 -17 4 -1 19 -28 35 -58
15 -30 36 -68 46 -85 11 -16 20 -36 20 -43 1 -7 8 -21 17 -30 13 -13 15 -32
12 -99 -2 -46 -1 -86 3 -89 5 -2 5 -27 2 -55 -4 -38 -2 -53 8 -60 11 -6 11
-11 1 -21 -6 -6 -12 -27 -12 -45 0 -18 -4 -41 -9 -51 -5 -9 -14 -34 -21 -56
-7 -21 -21 -58 -32 -82 -19 -44 -20 -45 -60 -40 -38 5 -39 4 -25 -12 9 -9 19
-40 22 -67 6 -42 4 -54 -14 -74 -12 -13 -21 -30 -21 -36 0 -14 -22 -25 -51
-25 -21 0 -25 -15 -8 -26 6 -3 7 -9 2 -13 -4 -3 -20 -24 -34 -46 -33 -50 -94
-115 -108 -115 -6 0 -11 -4 -11 -9 0 -5 -8 -12 -17 -15 -10 -3 -31 -17 -47
-31 -16 -14 -35 -25 -41 -25 -7 0 -15 -7 -19 -15 -3 -8 -12 -15 -20 -15 -8 0
-22 -8 -32 -17 -10 -10 -23 -18 -28 -18 -6 0 -27 -13 -47 -28 -23 -17 -48 -27
-70 -27 -19 0 -40 -5 -46 -11 -11 -11 -143 -27 -273 -34 -41 -2 -108 -6 -149
-9 -43 -4 -78 -3 -85 3 -6 5 -27 10 -46 10 -50 -1 -87 7 -152 30 -37 13 -80
19 -120 18 -53 -1 -70 3 -105 26 -24 15 -46 27 -51 27 -4 0 -23 11 -42 25 -19
14 -40 25 -47 25 -7 0 -44 20 -83 45 -39 25 -73 45 -76 45 -3 0 -20 11 -38 25
-18 14 -37 25 -42 25 -5 0 -31 15 -57 34 -26 19 -63 37 -81 40 -19 4 -47 13
-62 21 -16 8 -71 20 -121 26 l-93 13 0 43 c0 32 4 43 15 43 19 0 19 11 2 35
-13 17 -15 17 -35 -3 -15 -15 -22 -35 -22 -59 0 -55 -11 -67 -53 -60 -25 4
-37 1 -41 -9 -4 -11 -11 -12 -33 -3 -20 7 -50 7 -103 0 -41 -6 -145 -13 -230
-15 -157 -4 -247 -20 -279 -51 -12 -12 -7 -21 35 -59 70 -65 290 -212 391
-261 28 -14 54 -32 57 -41 3 -8 23 -22 43 -31 21 -8 54 -28 74 -44 19 -15 47
-33 62 -40 27 -12 27 -12 6 -27 -11 -8 -29 -12 -41 -9 -20 6 -58 -11 -58 -25
0 -4 36 -6 80 -5 44 1 80 4 80 7 0 4 -6 12 -12 19 -11 11 -9 12 7 8 11 -3 52
-9 90 -12 39 -3 93 -10 120 -16 28 -5 151 -11 275 -13 124 -3 270 -8 326 -12
99 -7 101 -7 96 -30 -4 -23 -1 -24 44 -24 26 0 62 5 79 11 27 10 44 8 108 -12
47 -14 77 -29 80 -39 3 -11 16 -17 38 -18 49 -2 130 -44 167 -88 18 -20 32
-41 32 -45 0 -5 12 -6 28 -4 19 3 45 -6 87 -30 33 -20 68 -38 78 -42 10 -3 16
-12 13 -20 -3 -7 2 -17 11 -20 24 -9 75 -63 60 -63 -18 0 -46 -69 -49 -120 -3
-40 0 -45 19 -48 14 -2 32 6 47 21 29 29 60 39 91 27 34 -13 65 -42 65 -61 0
-8 11 -38 25 -65 14 -27 25 -56 25 -65 0 -9 7 -22 15 -29 8 -7 15 -21 15 -31
0 -10 4 -20 8 -23 5 -3 15 -30 22 -61 7 -31 17 -58 22 -61 4 -3 8 -18 8 -35 0
-16 3 -29 8 -29 6 0 7 -32 3 -187 0 -18 -9 -54 -20 -80 -11 -27 -22 -73 -25
-102 -3 -34 -11 -58 -21 -63 -8 -5 -15 -18 -15 -29 0 -12 -8 -23 -19 -26 -11
-3 -23 -20 -30 -44 -7 -21 -15 -39 -20 -39 -4 0 -13 -10 -18 -23 -7 -14 -27
-28 -52 -37 -23 -7 -41 -19 -41 -27 0 -8 -12 -13 -30 -13 -30 0 -41 -15 -17
-23 9 -3 9 -7 -2 -20 -15 -19 -46 -22 -56 -7 -10 16 -26 0 -20 -20 7 -21 -10
-70 -25 -70 -5 0 -10 9 -10 20 0 11 -5 20 -11 20 -6 0 -9 -14 -7 -32 3 -29 0
-33 -27 -38 -16 -3 -29 -10 -28 -15 4 -27 -19 -43 -74 -50 -32 -4 -70 -13 -85
-21 -38 -19 -71 -17 -101 6 -34 27 -41 26 -84 -13 -47 -42 -154 -70 -268 -71
l-80 -1 -18 -37 c-10 -20 -25 -85 -33 -145 -25 -183 -35 -225 -50 -212 -11 9
-14 6 -14 -18 0 -17 -9 -42 -20 -56 -11 -14 -20 -32 -20 -40 0 -8 -13 -27 -30
-40 -16 -14 -30 -29 -30 -34 0 -4 -9 -14 -20 -21 -11 -7 -20 -18 -20 -25 0
-11 -40 -51 -180 -179 -16 -15 -46 -30 -65 -34 -19 -3 -38 -10 -41 -15 -3 -5
-13 -9 -23 -9 -10 0 -24 -7 -31 -15 -6 -7 -32 -17 -58 -21 -25 -4 -52 -12 -58
-19 -28 -27 -426 -28 -421 -1 1 6 -11 11 -28 11 -16 0 -40 6 -53 13 -12 7 -32
10 -43 7 -13 -4 -36 4 -68 24 -26 17 -52 31 -56 31 -5 0 -16 6 -24 13 -9 7
-34 19 -55 26 -35 12 -109 74 -132 113 -5 7 -31 24 -58 38 -27 14 -51 33 -54
42 -2 11 -14 18 -28 18 -15 0 -24 6 -24 15 0 8 -4 15 -10 15 -5 0 -14 18 -20
39 -6 22 -14 41 -18 43 -4 2 -15 20 -24 41 -10 20 -24 37 -33 37 -13 0 -47 61
-43 78 1 4 -4 20 -10 35 -7 16 -12 40 -12 55 0 15 -9 44 -20 65 -11 20 -20 49
-20 64 0 46 -24 133 -36 133 -12 0 -20 49 -28 180 -2 30 -10 76 -17 102 -11
41 -10 54 10 125 13 43 24 102 25 131 2 29 8 58 14 64 7 7 12 29 12 49 0 21 5
41 10 44 6 4 8 10 6 14 -6 10 24 144 35 156 16 16 11 308 -6 348 -19 47 -19
57 3 58 14 0 14 2 -3 8 -11 5 -20 12 -21 17 0 5 -6 22 -12 37 -7 15 -14 40
-18 55 -7 32 -14 50 -44 117 -12 28 -31 77 -41 110 -11 33 -23 69 -28 80 -6
11 -24 52 -41 90 -49 110 -111 213 -131 218 -41 11 -132 -105 -142 -180 -3
-23 -15 -56 -27 -73 -25 -36 -62 -132 -90 -235 -31 -113 -38 -136 -54 -160
-10 -14 -17 -64 -22 -144 -4 -67 -11 -121 -17 -121 -5 0 -4 -7 3 -15 13 -15
14 -23 29 -135 5 -41 14 -104 20 -139 6 -40 7 -69 1 -76 -6 -7 -4 -30 4 -60 8
-28 24 -115 36 -195 11 -80 25 -164 31 -187 5 -23 9 -76 9 -118 0 -43 7 -104
16 -137 15 -59 12 -159 -6 -183 -4 -5 -13 -50 -20 -100 -7 -49 -16 -94 -21
-100 -4 -5 -10 -36 -14 -68 -4 -31 -11 -60 -16 -63 -5 -3 -9 -19 -9 -35 0 -16
-6 -32 -14 -35 -7 -3 -16 -22 -20 -43 -11 -74 -44 -157 -74 -189 -16 -17 -33
-32 -36 -32 -15 0 -66 -68 -72 -95 -7 -36 -51 -85 -74 -85 -9 0 -25 -9 -34
-19 -10 -11 -31 -25 -47 -31 -16 -7 -29 -16 -29 -21 0 -5 -6 -9 -14 -9 -8 0
-17 -8 -21 -18 -3 -11 -23 -25 -45 -32 -22 -7 -45 -19 -51 -27 -6 -7 -24 -13
-40 -13 -29 0 -101 -29 -107 -42 -2 -5 -80 -8 -173 -8 -151 0 -175 2 -216 21
-25 11 -64 22 -86 25 -23 2 -45 10 -49 18 -5 9 -23 18 -41 21 -41 8 -64 25
-76 59 -6 14 -19 29 -28 32 -60 20 -97 47 -185 135 -54 55 -98 104 -98 109 0
6 -7 10 -15 10 -8 0 -15 7 -15 15 0 8 -4 15 -10 15 -13 0 -54 82 -71 140 -7
25 -18 52 -25 60 -45 56 -73 167 -39 154 8 -4 15 -2 15 4 0 5 -9 12 -20 15
-13 3 -20 14 -20 29 0 13 -7 34 -16 46 -19 27 -75 29 -149 6 -71 -23 -192 -21
-294 5 -46 11 -92 21 -102 21 -10 0 -40 13 -66 29 -27 16 -75 37 -108 46 -33
10 -67 24 -76 31 -8 8 -21 14 -27 14 -7 0 -12 4 -12 8 0 5 -11 14 -25 20 -14
6 -25 18 -25 26 0 17 -27 29 -35 15 -4 -5 -11 -7 -16 -3 -5 3 -7 10 -3 15 3 6
-3 13 -14 16 -24 6 -112 114 -112 137 0 8 -4 17 -9 21 -5 3 -13 20 -16 38 -4
17 -14 44 -23 59 -15 25 -14 29 1 46 17 19 17 20 -2 25 -13 3 -21 17 -26 48
-4 24 -14 58 -21 75 -18 37 -37 333 -23 350 5 6 7 13 4 16 -3 3 4 34 14 69 11
35 25 96 31 134 6 39 20 86 32 105 48 80 58 102 58 120 0 10 4 21 9 25 13 8
34 -33 27 -51 -3 -9 -1 -12 4 -9 6 3 10 12 10 18 0 7 7 25 15 40 8 15 12 34 8
43 -3 8 6 25 21 39 15 14 24 30 21 35 -3 6 1 10 9 10 8 0 18 9 21 20 4 11 18
26 33 34 15 8 36 23 46 35 14 15 22 18 32 10 9 -7 14 -5 19 10 3 12 12 21 20
21 7 0 15 4 17 9 5 14 141 111 155 111 7 0 13 5 13 10 0 6 11 10 23 10 28 0
87 27 87 40 0 7 173 67 218 76 7 1 25 10 40 20 29 19 27 19 186 30 82 5 107 4
102 -4 -4 -7 -3 -12 3 -12 5 0 11 4 13 10 2 5 70 11 153 14 151 5 258 18 279
34 6 5 56 33 111 62 55 29 106 58 114 64 15 11 48 32 71 42 8 4 28 18 43 31
16 13 33 23 39 23 6 0 27 19 48 43 21 23 50 49 66 57 30 16 30 16 116 88 31
26 77 60 102 75 25 16 46 35 46 42 0 7 12 27 26 44 47 56 20 74 -133 90 -54 6
-125 18 -158 27 -61 16 -194 19 -417 10 -154 -7 -209 -16 -273 -43 -33 -14
-75 -27 -93 -29 -19 -1 -45 -13 -58 -25 -13 -12 -24 -17 -24 -11 0 7 -4 12
-10 12 -5 0 -10 -7 -10 -15 0 -8 -9 -19 -20 -25 -16 -9 -20 -8 -20 5 0 8 -4
15 -10 15 -5 0 -10 -7 -10 -15 0 -8 -6 -15 -12 -15 -7 0 -35 -20 -63 -45 -27
-25 -56 -45 -62 -45 -7 0 -13 -4 -13 -10 0 -5 -9 -10 -19 -10 -11 0 -23 -9
-26 -20 -3 -11 -11 -20 -18 -20 -16 0 -77 -61 -77 -77 0 -7 -11 -13 -24 -13
-15 0 -26 -7 -29 -19 -3 -14 -28 -26 -93 -46 -49 -15 -93 -31 -99 -36 -18 -18
-26 -8 -20 24 6 30 5 31 -10 13 -8 -11 -15 -27 -15 -37 0 -9 -6 -22 -14 -28
-18 -15 -108 -24 -205 -22 -47 1 -78 -3 -89 -11 -11 -10 -77 -13 -276 -12
-256 1 -263 1 -339 27 -42 15 -82 27 -87 27 -5 0 -31 14 -57 30 -26 17 -65 33
-85 37 -22 3 -38 11 -38 19 0 7 -12 21 -27 31 -16 10 -32 23 -36 30 -4 7 -19
13 -32 13 -14 0 -25 5 -25 12 0 13 -68 78 -81 78 -5 0 -9 6 -9 14 0 8 -8 21
-18 28 -10 7 -25 28 -33 46 -8 18 -22 35 -31 38 -9 3 -32 35 -50 72 -25 50
-32 77 -30 108 3 33 -1 46 -19 62 -16 16 -22 33 -22 65 0 51 7 65 37 77 17 7
17 9 4 9 -21 1 -24 24 -4 40 8 7 17 28 21 48 5 29 3 40 -10 49 -30 22 -21 141
14 177 14 16 21 36 21 64 0 23 6 46 15 53 7 6 17 32 21 56 5 34 14 51 36 67
19 14 28 28 24 40 -2 10 2 21 10 24 8 3 14 16 14 29 0 13 5 24 10 24 6 0 20 9
32 20 12 11 28 20 35 20 7 0 13 7 13 15 0 8 15 23 34 32 36 19 72 58 102 112
33 60 56 81 87 81 17 0 45 11 64 26 27 20 33 32 33 63 0 20 -6 46 -14 57 -8
10 -12 29 -9 42 3 13 1 22 -6 22 -18 0 -50 38 -57 67 -4 16 -13 35 -20 43 -7
9 -13 24 -14 35 -3 128 -1 363 3 375 3 8 8 41 12 73 4 33 11 57 18 57 7 0 13
10 13 23 4 48 23 98 53 134 17 21 31 43 31 51 0 17 204 222 222 222 8 0 25 13
38 30 14 16 30 29 35 30 6 0 18 9 28 20 10 12 22 18 28 14 6 -4 21 5 33 19 24
28 82 49 75 28 -3 -7 -9 -13 -14 -13 -16 -1 -34 -32 -25 -42 4 -4 14 -5 22 0
7 5 24 7 36 5 20 -2 23 1 17 19 -4 12 -4 32 -1 45 5 21 11 24 35 19 18 -4 43
1 66 12 31 14 38 15 46 3 7 -11 9 -11 9 3 0 24 14 30 88 35 43 2 85 -1 116
-11 35 -11 54 -12 62 -5 9 8 13 3 16 -18 2 -24 7 -27 28 -24 54 8 177 7 208
-1 18 -5 42 -18 53 -29 28 -28 24 -99 -7 -99 -16 0 -19 -16 -4 -25 16 -10 48
31 56 70 5 29 10 35 23 29 9 -4 31 -12 49 -18 17 -6 32 -15 32 -19 0 -5 9 -5
20 -2 11 4 20 2 20 -4 0 -15 61 -71 95 -86 17 -7 68 -50 113 -94 58 -56 91
-81 108 -81 14 0 27 -7 30 -15 4 -8 12 -15 19 -15 7 0 23 -14 36 -31 13 -17
31 -38 39 -47 29 -31 70 -91 70 -101 0 -6 5 -20 10 -31 6 -11 15 -29 20 -40 6
-11 8 -31 4 -45 -4 -15 -2 -25 5 -25 16 0 47 -68 61 -135 8 -33 17 -65 22 -72
5 -6 8 -20 7 -30 -2 -10 4 -29 13 -43 8 -14 19 -45 22 -69 4 -24 16 -56 26
-71 11 -16 20 -33 20 -38 0 -5 16 -36 35 -68 19 -33 43 -75 54 -94 30 -53 183
-203 220 -215 9 -3 35 -23 59 -45 24 -22 47 -40 52 -40 6 0 10 -9 10 -20 0
-11 6 -21 13 -21 6 -1 17 -2 22 -3 6 0 64 -41 129 -90 66 -49 130 -90 143 -92
14 -1 41 -14 62 -28 44 -31 53 -32 75 -7 17 19 17 27 1 163 -13 108 -25 164
-50 228 -17 47 -42 117 -55 155 -46 139 -71 203 -101 249 -16 26 -27 51 -24
57 3 5 -5 21 -19 36 -15 15 -33 44 -43 63 -9 19 -29 51 -45 70 -15 19 -28 40
-28 47 0 7 -13 22 -29 34 -26 19 -28 25 -20 47 5 14 7 32 4 40 -5 13 -8 12
-23 -2 -10 -9 -25 -16 -33 -16 -17 0 -109 92 -109 108 0 7 -7 12 -15 12 -9 0
-41 24 -71 54 -45 44 -55 59 -49 76 6 19 4 21 -13 16 -25 -8 -166 122 -184
170 -7 21 -19 34 -32 36 -24 3 -135 161 -135 192 -1 11 -12 34 -26 52 -14 18
-25 38 -25 45 0 7 -7 20 -15 29 -8 9 -23 50 -34 91 -20 75 -62 200 -71 209 -3
3 -6 19 -7 35 -1 17 -7 77 -14 134 -11 104 -11 115 20 296 9 50 39 129 76 195
11 19 20 40 20 45 0 6 19 37 42 70 22 33 42 69 44 80 3 11 19 29 36 40 18 11
32 24 33 29 0 4 20 29 45 54 41 41 50 46 88 45 23 -1 34 1 25 4 -32 8 -3 43
36 43 19 0 39 6 45 14 16 19 86 34 191 41 47 3 107 11 135 17 36 8 50 8 53 -1
5 -14 58 -15 67 -1 12 19 101 11 146 -14 24 -13 62 -27 83 -31 22 -4 49 -13
60 -21 11 -8 33 -14 49 -14 20 0 30 -6 34 -20 3 -10 18 -25 34 -32 16 -7 27
-18 25 -23 -2 -6 4 -11 13 -12 37 -3 111 -25 111 -33 0 -5 13 -11 30 -15 16
-4 33 -12 37 -19 15 -26 105 -96 122 -96 24 0 110 58 141 95 14 16 40 44 59
60 19 17 45 40 59 53 16 14 38 22 59 22 19 0 46 6 61 14 15 7 62 19 104 25 42
7 101 22 130 33 29 11 91 25 138 30 47 5 96 13 110 17 16 5 29 4 35 -4 6 -7
28 -17 50 -24z m-5007 -3900 c2 -6 1 -19 -2 -28 -8 -19 -21 -9 -30 24 -5 17
-3 21 11 19 9 -2 19 -8 21 -15z"/>
<path d="M6801 9872 c-22 -11 -37 -27 -42 -44 -6 -25 -5 -26 38 -33 25 -3 46
-5 47 -3 60 92 43 123 -43 80z"/>
<path d="M4995 9850 c-3 -5 -17 -10 -30 -10 -28 0 -38 -12 -29 -34 8 -22 41
-20 71 4 14 11 33 20 42 20 11 1 8 5 -9 15 -30 17 -37 18 -45 5z"/>
<path d="M6666 9781 c-4 -7 -5 -15 -2 -18 9 -9 19 4 14 18 -4 11 -6 11 -12 0z"/>
<path d="M6431 9713 c7 -12 15 -20 18 -17 3 2 -3 12 -13 22 -17 16 -18 16 -5
-5z"/>
<path d="M6778 9708 c6 -7 14 -28 19 -46 4 -18 13 -33 18 -33 13 0 19 51 6 51
-5 0 -13 9 -16 20 -3 11 -13 20 -22 20 -11 0 -13 -3 -5 -12z"/>
<path d="M5871 9621 l-34 -29 27 -33 c23 -27 27 -40 24 -81 l-3 -48 47 0 c26
0 50 -4 53 -10 3 -5 11 -10 16 -10 17 0 -2 54 -27 75 -13 12 -24 26 -24 32 0
6 -9 15 -20 18 -25 8 -34 43 -21 79 18 47 11 48 -38 7z"/>
<path d="M5520 9610 c0 -5 5 -10 10 -10 6 0 10 5 10 10 0 6 -4 10 -10 10 -5 0
-10 -4 -10 -10z"/>
<path d="M6711 9551 c-15 -10 -24 -68 -11 -76 4 -3 10 4 13 15 5 18 11 20 61
14 39 -5 56 -3 56 5 0 6 -8 11 -17 11 -10 0 -33 9 -51 20 -38 23 -33 22 -51
11z"/>
<path d="M5545 9541 c-3 -5 -1 -12 5 -16 5 -3 10 1 10 9 0 18 -6 21 -15 7z"/>
<path d="M5595 9540 c-3 -5 1 -10 9 -10 8 0 18 5 21 10 3 6 -1 10 -9 10 -8 0
-18 -4 -21 -10z"/>
<path d="M5776 9534 c-9 -23 -8 -24 23 -24 37 0 48 15 22 29 -27 15 -38 14
-45 -5z"/>
<path d="M4430 9489 c0 -5 5 -7 10 -4 6 3 10 8 10 11 0 2 -4 4 -10 4 -5 0 -10
-5 -10 -11z"/>
<path d="M5754 9471 c-21 -21 27 -45 60 -29 14 6 26 15 26 19 0 8 -78 17 -86
10z"/>
<path d="M4765 9420 c4 -6 11 -8 16 -5 14 9 11 15 -7 15 -8 0 -12 -5 -9 -10z"/>
<path d="M4586 9405 c4 -8 8 -15 10 -15 2 0 4 7 4 15 0 8 -4 15 -10 15 -5 0
-7 -7 -4 -15z"/>
<path d="M5780 9374 c0 -9 5 -14 12 -12 18 6 21 28 4 28 -9 0 -16 -7 -16 -16z"/>
<path d="M5886 9371 c-20 -23 -29 -58 -16 -66 6 -4 10 4 10 18 0 32 23 51 51
42 15 -5 20 -3 17 6 -7 20 -45 19 -62 0z"/>
<path d="M6024 9379 c-3 -6 -1 -16 5 -22 8 -8 11 -5 11 11 0 24 -5 28 -16 11z"/>
<path d="M5433 9353 c-27 -5 -29 -16 -7 -34 13 -10 17 -10 25 2 8 12 13 41 7
38 -2 -1 -13 -4 -25 -6z"/>
<path d="M4915 9250 c3 -5 8 -10 11 -10 2 0 4 5 4 10 0 6 -5 10 -11 10 -5 0
-7 -4 -4 -10z"/>
<path d="M5295 9250 c3 -5 8 -10 11 -10 2 0 4 5 4 10 0 6 -5 10 -11 10 -5 0
-7 -4 -4 -10z"/>
<path d="M5771 9233 c9 -2 21 -15 27 -28 6 -13 20 -29 32 -35 26 -14 26 1 0
18 -11 7 -20 21 -20 32 0 15 -6 20 -27 19 -16 -1 -21 -3 -12 -6z"/>
<path d="M5953 9228 c2 -7 14 -13 27 -13 13 0 25 6 28 13 2 8 -7 12 -28 12
-21 0 -30 -4 -27 -12z"/>
<path d="M6040 9235 c0 -2 8 -17 18 -33 l17 -29 17 33 18 34 -35 0 c-19 0 -35
-2 -35 -5z"/>
<path d="M6688 9189 c-10 -10 -15 -19 -10 -20 4 0 15 -2 26 -4 13 -3 15 0 8 7
-6 6 -8 17 -5 24 7 18 2 17 -19 -7z"/>
<path d="M6120 9179 c0 -31 -18 -59 -39 -59 -10 0 -33 -7 -50 -16 -30 -15 -32
-19 -26 -50 3 -19 17 -45 30 -59 14 -13 25 -28 25 -33 0 -5 8 -12 19 -15 19
-5 33 -48 21 -67 -4 -6 -18 -10 -31 -8 -34 4 -39 -15 -8 -26 43 -15 77 0 98
43 22 42 43 55 60 38 8 -8 11 -5 11 12 0 20 4 22 25 17 29 -7 32 0 10 24 -14
15 -14 19 -1 29 10 8 12 18 7 29 -39 79 -51 106 -51 118 0 8 -7 14 -15 14 -8
0 -15 7 -15 15 0 10 -11 15 -35 15 -29 0 -35 -4 -35 -21z"/>
<path d="M6553 9157 c0 -20 4 -23 23 -19 29 5 31 18 5 32 -27 14 -28 13 -28
-13z"/>
<path d="M5657 9141 c3 -12 10 -21 15 -21 13 0 6 32 -9 37 -7 3 -9 -3 -6 -16z"/>
<path d="M6386 9136 c3 -9 11 -16 16 -16 13 0 5 23 -10 28 -7 2 -10 -2 -6 -12z"/>
<path d="M6500 9140 c0 -5 5 -10 10 -10 6 0 10 5 10 10 0 6 -4 10 -10 10 -5 0
-10 -4 -10 -10z"/>
<path d="M4720 9125 c0 -8 4 -15 10 -15 5 0 7 7 4 15 -4 8 -8 15 -10 15 -2 0
-4 -7 -4 -15z"/>
<path d="M5914 9117 c3 -10 6 -24 6 -30 0 -8 4 -7 12 1 10 10 8 16 -6 30 -18
16 -19 16 -12 -1z"/>
<path d="M5824 9108 c-10 -15 -6 -76 5 -96 6 -11 10 -8 15 13 4 16 2 33 -5 41
-6 8 -9 23 -6 34 6 23 2 26 -9 8z"/>
<path d="M6527 9096 c-21 -31 -8 -66 22 -66 10 0 24 -7 31 -15 14 -17 40 -20
40 -6 0 5 -14 23 -30 40 -17 16 -34 39 -38 51 -8 22 -8 22 -25 -4z"/>
<path d="M4520 9101 c0 -6 5 -13 10 -16 6 -3 10 1 10 9 0 9 -4 16 -10 16 -5 0
-10 -4 -10 -9z"/>
<path d="M5258 9043 c7 -3 16 -2 19 1 4 3 -2 6 -13 5 -11 0 -14 -3 -6 -6z"/>
<path d="M5890 9021 c0 -10 30 -24 37 -17 3 2 -5 9 -16 16 -12 6 -21 7 -21 1z"/>
<path d="M5510 8995 c-7 -9 -11 -18 -8 -20 9 -10 38 7 38 21 0 18 -14 18 -30
-1z"/>
<path d="M5420 8980 c0 -5 9 -10 21 -10 11 0 17 5 14 10 -3 6 -13 10 -21 10
-8 0 -14 -4 -14 -10z"/>
<path d="M6474 8964 c3 -9 6 -18 6 -20 0 -2 7 -4 15 -4 8 0 15 9 15 20 0 14
-7 20 -21 20 -15 0 -19 -4 -15 -16z"/>
<path d="M6386 8963 c-12 -12 -5 -23 14 -23 11 0 20 4 20 9 0 11 -26 22 -34
14z"/>
<path d="M5530 8880 c0 -5 5 -10 11 -10 5 0 7 5 4 10 -3 6 -8 10 -11 10 -2 0
-4 -4 -4 -10z"/>
<path d="M5885 8870 c-19 -8 -19 -9 3 -9 12 -1 22 4 22 9 0 6 -1 10 -2 9 -2 0
-12 -4 -23 -9z"/>
<path d="M7056 8864 c-4 -9 -4 -19 -1 -22 2 -3 7 3 11 12 4 9 4 19 1 22 -2 3
-7 -3 -11 -12z"/>
<path d="M7310 8871 c0 -5 5 -13 10 -16 6 -3 10 -2 10 4 0 5 -4 13 -10 16 -5
3 -10 2 -10 -4z"/>
<path d="M5465 8860 c3 -5 8 -10 11 -10 2 0 4 5 4 10 0 6 -5 10 -11 10 -5 0
-7 -4 -4 -10z"/>
<path d="M5833 8833 c-15 -32 -16 -55 -4 -68 5 -6 11 -21 13 -34 1 -14 8 -26
14 -28 13 -4 27 38 16 47 -4 3 -8 18 -9 33 -1 25 2 28 23 24 14 -2 27 0 30 4
3 5 -6 9 -19 9 -14 0 -31 9 -38 20 -14 20 -14 20 -26 -7z"/>
<path d="M6930 8850 c0 -5 5 -10 10 -10 6 0 10 5 10 10 0 6 -4 10 -10 10 -5 0
-10 -4 -10 -10z"/>
<path d="M6456 8834 c-7 -17 0 -34 14 -34 15 0 19 28 6 40 -10 8 -15 6 -20 -6z"/>
<path d="M6278 8833 c-22 -5 -32 -34 -16 -45 7 -4 23 -8 36 -8 20 0 22 4 17
23 -9 29 -16 34 -37 30z"/>
<path d="M5550 8823 c0 -19 11 -43 21 -43 13 0 11 14 -6 36 -8 10 -15 14 -15
7z"/>
<path d="M5950 8796 c0 -21 6 -36 15 -40 8 -3 12 -12 9 -21 -4 -10 0 -15 10
-15 14 0 16 6 10 38 -4 20 -8 45 -8 55 0 10 -8 17 -18 17 -14 0 -18 -8 -18
-34z"/>
<path d="M7211 8813 c0 -4 4 -17 9 -28 8 -19 9 -19 9 2 1 12 -3 25 -9 28 -5 3
-10 3 -9 -2z"/>
<path d="M6050 8760 c-8 -5 -11 -12 -8 -15 4 -4 17 0 30 9 24 17 5 23 -22 6z"/>
<path d="M6935 8750 c3 -5 8 -10 11 -10 2 0 4 5 4 10 0 6 -5 10 -11 10 -5 0
-7 -4 -4 -10z"/>
<path d="M8615 8721 c17 -5 38 -12 49 -16 14 -6 18 -4 14 6 -3 9 -21 15 -49
16 -39 1 -40 1 -14 -6z"/>
<path d="M5330 8709 c0 -5 5 -7 10 -4 6 3 10 8 10 11 0 2 -4 4 -10 4 -5 0 -10
-5 -10 -11z"/>
<path d="M8728 8713 c7 -3 16 -2 19 1 4 3 -2 6 -13 5 -11 0 -14 -3 -6 -6z"/>
<path d="M6240 8686 c0 -9 5 -16 10 -16 6 0 10 4 10 9 0 6 -4 13 -10 16 -5 3
-10 -1 -10 -9z"/>
<path d="M7016 8685 c-11 -8 -30 -15 -43 -15 -28 0 -30 -16 -3 -30 16 -9 28
-7 52 4 17 9 37 16 44 16 7 0 10 8 7 20 -6 23 -30 25 -57 5z"/>
<path d="M5684 8660 c-1 -17 3 -30 7 -30 5 0 19 -21 31 -47 12 -27 23 -49 24
-51 1 -2 11 1 22 7 36 19 -4 90 -52 91 -15 0 -17 5 -12 30 4 20 2 30 -7 30 -6
0 -12 -14 -13 -30z"/>
<path d="M6438 8683 c7 -3 16 -2 19 1 4 3 -2 6 -13 5 -11 0 -14 -3 -6 -6z"/>
<path d="M8545 8650 c3 -5 10 -10 16 -10 5 0 9 5 9 10 0 6 -7 10 -16 10 -8 0
-12 -4 -9 -10z"/>
<path d="M7032 8597 l-22 -24 30 0 c30 0 37 11 22 35 -6 9 -14 6 -30 -11z"/>
<path d="M6950 8599 c0 -5 5 -7 10 -4 6 3 10 8 10 11 0 2 -4 4 -10 4 -5 0 -10
-5 -10 -11z"/>
<path d="M7127 8604 c-12 -13 -7 -20 13 -20 11 0 19 5 17 10 -4 13 -21 18 -30
10z"/>
<path d="M6582 8591 c-10 -6 -10 -10 3 -21 8 -7 15 -18 15 -24 0 -6 7 -24 15
-40 10 -19 12 -33 5 -41 -6 -7 -6 -15 1 -22 7 -7 8 -17 1 -29 -15 -30 -8 -88
14 -118 l20 -27 28 22 c24 18 32 20 47 10 18 -10 19 -9 13 16 -7 29 -30 52
-50 53 -15 0 -25 26 -18 44 3 7 -2 16 -10 19 -18 7 -21 33 -6 42 6 4 16 2 23
-3 7 -5 21 -12 32 -16 17 -5 20 -2 19 21 0 20 -7 29 -25 33 -18 5 -24 13 -24
34 -1 24 -7 30 -40 42 -47 16 -46 16 -63 5z"/>
<path d="M5530 8580 c0 -5 5 -10 10 -10 6 0 10 5 10 10 0 6 -4 10 -10 10 -5 0
-10 -4 -10 -10z"/>
<path d="M7227 8573 c-10 -16 11 -39 23 -27 8 8 7 14 -4 23 -8 7 -17 8 -19 4z"/>
<path d="M5990 8561 c0 -5 -13 -14 -30 -21 -16 -7 -27 -16 -24 -21 8 -13 67
-10 86 5 16 12 16 14 -3 29 -22 19 -29 21 -29 8z"/>
<path d="M7020 8519 c0 -5 5 -7 10 -4 6 3 10 8 10 11 0 2 -4 4 -10 4 -5 0 -10
-5 -10 -11z"/>
<path d="M7150 8491 c0 -12 5 -21 10 -21 6 0 10 6 10 14 0 8 -4 18 -10 21 -5
3 -10 -3 -10 -14z"/>
<path d="M6916 8443 c0 -27 4 -65 9 -86 7 -38 7 -39 -21 -35 -20 2 -29 8 -28
21 2 18 -11 23 -20 8 -10 -15 24 -83 38 -78 16 6 76 -46 76 -66 0 -8 7 -17 15
-21 8 -3 33 -43 54 -90 36 -75 61 -112 61 -89 0 15 -25 63 -32 63 -5 0 -8 11
-8 25 0 14 -5 25 -11 25 -6 0 -8 8 -4 19 3 11 2 22 -3 25 -6 3 -13 22 -16 41
-4 19 -12 35 -19 35 -23 1 -81 150 -74 189 3 16 1 36 -6 45 -10 14 -12 8 -11
-31z"/>
<path d="M6416 8468 c10 -6 25 -18 32 -27 12 -15 14 -14 28 3 21 29 19 31 -33
32 -37 1 -42 0 -27 -8z"/>
<path d="M7385 8449 c21 -17 28 -19 41 -9 19 17 11 24 -32 27 l-35 2 26 -20z"/>
<path d="M5772 8421 c-19 -26 -19 -31 -6 -42 8 -7 13 -18 10 -25 -3 -7 4 -24
15 -36 10 -13 25 -31 32 -41 11 -16 14 -16 35 -2 29 21 28 39 -3 53 -14 6 -25
18 -25 25 0 8 -9 22 -21 33 -14 12 -18 25 -14 41 7 30 3 29 -23 -6z"/>
<path d="M5856 8432 c-3 -5 8 -16 24 -25 35 -21 49 -5 15 17 -28 18 -32 19
-39 8z"/>
<path d="M6000 8423 c0 -5 5 -15 10 -23 8 -12 10 -11 10 8 0 12 -4 22 -10 22
-5 0 -10 -3 -10 -7z"/>
<path d="M4586 8411 c5 -5 23 -12 39 -16 30 -6 30 -6 -4 10 -38 17 -49 19 -35
6z"/>
<path d="M6496 8402 c-3 -6 -1 -14 5 -17 15 -10 25 3 12 16 -7 7 -13 7 -17 1z"/>
<path d="M7340 8399 c0 -5 5 -7 10 -4 6 3 10 8 10 11 0 2 -4 4 -10 4 -5 0 -10
-5 -10 -11z"/>
<path d="M3496 8385 c-3 -8 -1 -15 4 -15 6 0 10 7 10 15 0 8 -2 15 -4 15 -2 0
-6 -7 -10 -15z"/>
<path d="M6430 8386 c0 -18 17 -29 30 -21 8 5 7 11 -1 21 -15 18 -29 18 -29 0z"/>
<path d="M3747 8359 c-3 -13 -1 -19 6 -16 15 5 22 37 9 37 -5 0 -12 -9 -15
-21z"/>
<path d="M4694 8362 c-8 -7 -14 -19 -14 -25 0 -7 5 -4 11 6 14 24 29 21 29 -5
0 -13 5 -30 10 -38 8 -12 10 -10 10 11 0 33 8 41 31 28 25 -13 57 2 37 18 -21
17 -99 21 -114 5z"/>
<path d="M7056 8354 c-7 -18 0 -34 15 -34 5 0 9 11 9 25 0 28 -15 34 -24 9z"/>
<path d="M3650 8345 c-10 -12 -10 -19 -2 -27 6 -6 8 -23 5 -38 -3 -19 0 -29
11 -33 9 -4 16 -14 16 -24 0 -13 3 -14 11 -6 8 8 9 22 3 40 -10 36 -11 43 -13
76 -1 30 -12 35 -31 12z"/>
<path d="M3175 8340 c-10 -17 12 -37 25 -24 8 8 6 15 -4 23 -10 9 -16 9 -21 1z"/>
<path d="M4844 8337 c3 -10 6 -32 6 -48 0 -26 4 -29 30 -29 39 0 38 12 -6 58
-21 21 -33 29 -30 19z"/>
<path d="M8550 8340 c0 -5 5 -10 11 -10 5 0 7 5 4 10 -3 6 -8 10 -11 10 -2 0
-4 -4 -4 -10z"/>
<path d="M3350 8330 c0 -5 5 -10 10 -10 6 0 10 5 10 10 0 6 -4 10 -10 10 -5 0
-10 -4 -10 -10z"/>
<path d="M3572 8324 c-20 -14 -21 -44 -1 -44 10 0 32 50 26 56 -2 2 -13 -3
-25 -12z"/>
<path d="M3875 8306 c11 -8 23 -12 28 -9 13 8 -3 23 -26 23 -20 0 -20 0 -2
-14z"/>
<path d="M6427 8283 c-4 -24 -2 -40 5 -44 20 -12 28 1 15 22 -10 17 -9 22 6
33 22 17 22 26 -2 26 -14 0 -20 -10 -24 -37z"/>
<path d="M3345 8290 c-3 -5 1 -10 9 -10 9 0 16 5 16 10 0 6 -4 10 -9 10 -6 0
-13 -4 -16 -10z"/>
<path d="M7985 8264 c-44 -31 -55 -35 -91 -29 -42 6 -74 -1 -74 -16 0 -5 8 -9
18 -9 9 0 30 -13 45 -29 15 -16 41 -31 56 -34 16 -3 44 -20 62 -37 58 -53 137
-80 252 -85 95 -4 166 -30 187 -70 11 -21 20 -25 59 -25 25 1 66 5 90 9 39 8
46 6 66 -15 12 -13 25 -24 27 -24 8 0 31 148 25 163 -3 9 -15 12 -34 10 -27
-4 -30 -1 -41 36 -16 53 -40 60 -96 27 -43 -25 -44 -25 -61 -6 -21 24 -58 26
-75 5 -7 -8 -18 -15 -25 -15 -15 0 -35 51 -35 87 l0 25 -42 -31 c-60 -44 -105
-42 -168 7 -26 20 -55 49 -65 65 -9 15 -19 27 -23 27 -4 0 -30 -16 -57 -36z
m189 -130 c4 -9 4 -19 2 -22 -10 -9 -36 8 -36 23 0 20 26 19 34 -1z"/>
<path d="M5906 8275 c-3 -8 -1 -15 4 -15 6 0 10 7 10 15 0 8 -2 15 -4 15 -2 0
-6 -7 -10 -15z"/>
<path d="M6245 8281 c-6 -11 9 -23 19 -14 9 9 7 23 -3 23 -6 0 -12 -4 -16 -9z"/>
<path d="M6707 8245 c-31 -26 -35 -34 -21 -39 12 -5 15 -15 12 -43 -4 -31 0
-42 29 -69 23 -23 33 -41 33 -63 0 -34 -14 -41 -28 -15 -8 14 -12 13 -34 -9
l-25 -25 43 4 c29 3 45 0 51 -9 10 -17 46 -37 66 -37 9 0 14 13 15 41 2 33 -3
45 -22 60 -16 13 -22 26 -19 39 4 15 0 20 -16 20 -22 0 -30 33 -11 45 6 4 0
15 -14 26 -31 24 -41 55 -26 74 26 31 3 31 -33 0z"/>
<path d="M7155 8257 c10 -15 20 -25 23 -22 3 3 -5 16 -17 28 l-23 22 17 -28z"/>
<path d="M3310 8259 c0 -5 5 -7 10 -4 6 3 10 8 10 11 0 2 -4 4 -10 4 -5 0 -10
-5 -10 -11z"/>
<path d="M6500 8245 c0 -15 4 -24 10 -20 6 3 10 12 10 20 0 8 -4 17 -10 20 -6
4 -10 -5 -10 -20z"/>
<path d="M6573 8216 c2 -16 -2 -52 -9 -80 -9 -36 -10 -54 -2 -63 5 -7 8 -20 4
-28 -8 -21 3 -45 20 -45 8 0 15 10 15 23 2 28 2 29 -5 47 -5 11 3 19 26 28 31
12 32 13 13 24 -11 6 -23 16 -27 22 -8 12 1 67 13 81 16 17 9 24 -22 23 -29
-1 -30 -3 -26 -32z"/>
<path d="M5675 8230 c-3 -5 1 -10 10 -10 9 0 13 5 10 10 -3 6 -8 10 -10 10 -2
0 -7 -4 -10 -10z"/>
<path d="M3080 8220 c0 -5 5 -10 10 -10 6 0 10 5 10 10 0 6 -4 10 -10 10 -5 0
-10 -4 -10 -10z"/>
<path d="M3487 8224 c-4 -4 -4 -17 -1 -29 3 -13 -1 -27 -10 -34 -20 -17 -20
-37 0 -45 29 -11 39 -6 58 34 14 30 25 40 43 40 13 0 23 6 23 14 0 10 -11 12
-45 8 -30 -3 -45 -1 -45 7 0 12 -13 15 -23 5z"/>
<path d="M4935 8220 c-7 -12 2 -30 16 -30 5 0 9 9 9 20 0 21 -15 27 -25 10z"/>
<path d="M3360 8204 c-8 -9 -19 -26 -25 -38 -6 -12 -20 -21 -33 -20 -22 1 -33
-22 -46 -92 -6 -38 7 -44 74 -35 30 4 45 11 45 21 2 50 19 110 31 110 8 0 14
5 14 10 0 6 -11 10 -25 10 -26 0 -33 14 -15 25 6 4 18 1 27 -6 13 -11 15 -11
12 6 -5 25 -42 31 -59 9z"/>
<path d="M5070 8193 c0 -25 1 -26 16 -11 9 9 13 21 10 27 -13 20 -26 11 -26
-16z"/>
<path d="M6459 8208 c0 -2 -3 -21 -5 -43 -10 -88 -9 -100 6 -100 8 0 14 7 12
16 -1 9 5 22 13 29 26 21 17 100 -11 100 -8 0 -14 -1 -15 -2z"/>
<path d="M6840 8200 c0 -5 7 -10 16 -10 8 0 12 5 9 10 -3 6 -10 10 -16 10 -5
0 -9 -4 -9 -10z"/>
<path d="M3000 8180 c0 -5 5 -10 10 -10 6 0 10 5 10 10 0 6 -4 10 -10 10 -5 0
-10 -4 -10 -10z"/>
<path d="M4085 8170 c3 -5 15 -10 26 -10 10 0 19 5 19 10 0 6 -12 10 -26 10
-14 0 -23 -4 -19 -10z"/>
<path d="M6230 8170 c0 -5 5 -10 11 -10 5 0 7 5 4 10 -3 6 -8 10 -11 10 -2 0
-4 -4 -4 -10z"/>
<path d="M6298 8152 c-14 -3 -16 -7 -8 -23 10 -18 41 -27 39 -11 -2 22 -16 37
-31 34z"/>
<path d="M5080 8140 c0 -5 5 -10 10 -10 6 0 10 5 10 10 0 6 -4 10 -10 10 -5 0
-10 -4 -10 -10z"/>
<path d="M2985 8121 c-3 -5 -1 -12 5 -16 5 -3 10 1 10 9 0 18 -6 21 -15 7z"/>
<path d="M4740 8095 c0 -8 5 -15 10 -15 6 0 10 7 10 15 0 8 -4 15 -10 15 -5 0
-10 -7 -10 -15z"/>
<path d="M7200 8100 c0 -21 -1 -26 -13 -45 -11 -17 -9 -24 11 -45 l23 -24 -11
28 c-8 21 -8 38 0 59 12 37 12 37 0 37 -5 0 -10 -4 -10 -10z"/>
<path d="M3180 8060 c-13 -25 -9 -142 5 -147 6 -2 10 30 11 82 0 47 -1 85 -3
85 -1 0 -7 -9 -13 -20z"/>
<path d="M4200 8070 c0 -5 5 -10 11 -10 5 0 7 5 4 10 -3 6 -8 10 -11 10 -2 0
-4 -4 -4 -10z"/>
<path d="M7255 8070 c3 -5 8 -10 11 -10 2 0 4 5 4 10 0 6 -5 10 -11 10 -5 0
-7 -4 -4 -10z"/>
<path d="M6290 8063 c0 -14 19 -38 25 -32 8 8 -5 39 -16 39 -5 0 -9 -3 -9 -7z"/>
<path d="M6955 8050 c3 -5 10 -10 16 -10 5 0 9 5 9 10 0 6 -7 10 -16 10 -8 0
-12 -4 -9 -10z"/>
<path d="M2594 8024 c3 -8 6 -20 6 -25 0 -5 5 -9 10 -9 16 0 11 37 -6 44 -12
5 -15 2 -10 -10z"/>
<path d="M2845 8010 c-3 -5 -1 -18 4 -27 9 -16 10 -14 11 10 0 28 -5 34 -15
17z"/>
<path d="M6980 8012 c0 -7 43 -32 55 -32 2 0 1 9 -2 20 -3 13 -14 20 -29 20
-13 0 -24 -4 -24 -8z"/>
<path d="M5200 8000 c0 -5 5 -10 10 -10 6 0 10 5 10 10 0 6 -4 10 -10 10 -5 0
-10 -4 -10 -10z"/>
<path d="M6310 8000 c-13 -8 -13 -10 2 -10 9 0 20 5 23 10 8 13 -5 13 -25 0z"/>
<path d="M6020 7971 c0 -12 5 -21 10 -21 6 0 10 6 10 14 0 8 -4 18 -10 21 -5
3 -10 -3 -10 -14z"/>
<path d="M6422 7970 c0 -14 2 -19 5 -12 2 6 2 18 0 25 -3 6 -5 1 -5 -13z"/>
<path d="M7782 7970 c0 -14 2 -19 5 -12 2 6 2 18 0 25 -3 6 -5 1 -5 -13z"/>
<path d="M5350 7969 c0 -4 20 -6 45 -5 25 0 45 5 45 9 0 4 -20 6 -45 5 -25 -2
-45 -6 -45 -9z"/>
<path d="M6505 7960 c-4 -6 -15 -8 -25 -5 -22 7 -36 -10 -15 -19 8 -3 15 -10
15 -16 0 -5 9 -19 21 -31 16 -16 19 -28 15 -54 -4 -19 -2 -36 4 -40 15 -9 12
-25 -5 -25 -17 0 -19 -9 -7 -28 7 -10 12 -8 24 5 30 35 39 62 28 82 -5 11 -10
30 -10 42 0 13 -10 33 -21 46 -18 18 -20 25 -9 38 8 9 8 15 2 15 -6 0 -14 -5
-17 -10z"/>
<path d="M7636 7954 c-4 -9 -4 -19 -1 -22 3 -3 11 0 17 6 9 9 9 15 1 23 -7 7
-12 5 -17 -7z"/>
<path d="M3336 7935 c-3 -9 0 -15 9 -15 8 0 15 7 15 15 0 8 -4 15 -9 15 -5 0
-11 -7 -15 -15z"/>
<path d="M6334 7925 l-25 -25 20 -38 c21 -40 34 -129 20 -138 -11 -7 -12 -24
-1 -24 5 0 14 12 21 26 9 20 9 34 -1 60 -10 30 -9 39 9 76 15 33 18 48 10 66
-13 28 -22 28 -53 -3z"/>
<path d="M5290 7920 c0 -5 5 -10 10 -10 6 0 10 5 10 10 0 6 -4 10 -10 10 -5 0
-10 -4 -10 -10z"/>
<path d="M9098 7922 c-9 -4 -27 -23 -40 -42 -14 -21 -34 -36 -48 -39 -31 -4
-40 -17 -40 -58 0 -17 -4 -35 -10 -38 -12 -7 -14 -26 -2 -23 4 1 27 -4 51 -11
24 -7 53 -10 64 -7 12 3 33 -4 50 -16 18 -13 51 -23 83 -26 l53 -4 -4 38 c-4
56 -21 93 -47 105 -14 6 -34 34 -50 69 -28 61 -30 64 -60 52z m-48 -148 c0 -8
-7 -14 -15 -14 -15 0 -21 21 -9 33 10 9 24 -2 24 -19z m72 -39 c0 -5 -5 -11
-11 -13 -6 -2 -11 4 -11 13 0 9 5 15 11 13 6 -2 11 -8 11 -13z"/>
<path d="M3028 7885 c-2 -19 0 -35 4 -35 4 0 8 -16 8 -35 0 -19 5 -35 10 -35
6 0 10 23 10 50 0 42 3 50 19 50 15 0 51 28 40 31 -2 1 -23 3 -45 5 -41 3 -42
3 -46 -31z"/>
<path d="M4402 7890 c0 -14 2 -19 5 -12 2 6 2 18 0 25 -3 6 -5 1 -5 -13z"/>
<path d="M2985 7880 c-8 -24 -54 -50 -90 -50 -20 0 -25 -5 -25 -25 0 -13 -6
-28 -13 -32 -8 -4 -13 -21 -13 -38 1 -24 -4 -31 -21 -33 -28 -4 -30 -19 -3
-27 11 -3 27 -22 36 -41 9 -19 25 -39 35 -45 11 -5 19 -17 19 -25 0 -8 5 -12
11 -9 6 4 8 13 5 21 -3 7 2 17 11 22 13 8 14 10 0 15 -10 4 -13 13 -10 26 4
15 1 21 -11 21 -9 0 -16 5 -16 11 0 14 55 69 69 69 14 0 25 -45 18 -78 -3 -16
-2 -34 4 -42 7 -13 9 -13 9 -1 0 8 10 25 21 37 17 18 28 22 52 17 23 -5 28 -3
23 8 -3 8 -9 22 -12 32 -7 19 -31 22 -54 7 -29 -18 -38 7 -35 95 3 87 1 100
-10 65z"/>
<path d="M3525 7880 c-3 -5 -1 -10 4 -10 6 0 11 5 11 10 0 6 -2 10 -4 10 -3 0
-8 -4 -11 -10z"/>
<path d="M6690 7876 c0 -8 5 -18 10 -21 6 -3 10 -19 10 -34 0 -17 10 -37 26
-52 14 -13 30 -34 35 -46 10 -26 27 -30 35 -9 8 20 -23 63 -55 79 -17 8 -25
19 -23 32 4 20 -17 65 -30 65 -4 0 -8 -6 -8 -14z"/>
<path d="M3218 7864 c24 -17 39 -14 27 5 -3 6 -16 11 -28 11 l-21 0 22 -16z"/>
<path d="M5366 7865 c-7 -20 8 -62 18 -47 12 20 36 13 46 -13 5 -14 21 -30 35
-37 14 -6 28 -22 31 -35 4 -13 12 -23 20 -23 8 0 15 -6 15 -12 1 -7 2 -20 3
-28 1 -20 36 -26 36 -6 0 21 -21 66 -32 66 -8 0 -58 49 -115 114 -34 39 -48
44 -57 21z"/>
<path d="M4041 7831 c-12 -7 -12 -13 0 -40 12 -27 19 -31 52 -31 43 0 81 16
72 30 -6 9 -91 50 -104 50 -3 0 -12 -4 -20 -9z"/>
<path d="M9285 7773 c-3 -9 5 -25 20 -39 14 -13 25 -32 25 -44 0 -11 4 -20 8
-20 15 0 32 24 32 45 -1 44 -71 92 -85 58z"/>
<path d="M7630 7760 c20 -13 63 -13 55 0 -3 6 -21 10 -38 10 -24 0 -28 -3 -17
-10z"/>
<path d="M7718 7749 c-24 -26 -22 -35 7 -34 36 2 52 20 35 40 -16 19 -21 18
-42 -6z"/>
<path d="M2731 7744 c0 -11 3 -14 6 -6 3 7 2 16 -1 19 -3 4 -6 -2 -5 -13z"/>
<path d="M7537 7753 c-4 -3 -7 -13 -7 -22 0 -12 10 -16 40 -16 l40 -1 -22 23
c-22 23 -39 29 -51 16z"/>
<path d="M6154 7742 c-7 -4 -8 -15 -3 -29 11 -29 29 -30 22 -2 -4 12 0 25 8
30 12 7 12 9 -1 9 -8 0 -20 -4 -26 -8z"/>
<path d="M6460 7715 c-11 -13 -10 -18 8 -31 12 -8 22 -23 22 -33 0 -9 15 -32
34 -50 19 -18 37 -47 40 -65 18 -103 26 -126 47 -126 17 0 9 38 -8 45 -17 6
-17 7 0 20 12 8 14 15 8 20 -6 3 -11 21 -11 40 0 20 -6 35 -15 39 -9 3 -15 18
-15 36 0 24 -4 30 -20 30 -18 0 -20 4 -14 35 6 35 1 40 -35 35 -8 -1 -17 4
-21 10 -5 8 -11 6 -20 -5z"/>
<path d="M4120 7690 c-9 -6 -10 -10 -3 -10 6 0 15 5 18 10 8 12 4 12 -15 0z"/>
<path d="M4344 7671 c4 -6 14 -11 23 -11 9 0 25 -7 35 -17 10 -9 18 -11 18 -6
0 15 -21 30 -54 39 -21 5 -27 4 -22 -5z"/>
<path d="M7751 7656 c-10 -12 -8 -13 8 -9 12 3 18 9 15 14 -7 12 -10 11 -23
-5z"/>
<path d="M3202 7627 c-9 -11 -10 -17 -2 -22 15 -9 23 -1 18 21 -3 15 -4 16
-16 1z"/>
<path d="M8210 7615 c0 -8 7 -15 16 -15 14 0 14 3 4 15 -7 8 -14 15 -16 15 -2
0 -4 -7 -4 -15z"/>
<path d="M7435 7601 c-3 -5 -1 -12 5 -16 5 -3 10 1 10 9 0 18 -6 21 -15 7z"/>
<path d="M7507 7595 c10 -7 21 -11 25 -9 16 10 7 19 -18 20 -23 2 -24 1 -7
-11z"/>
<path d="M2675 7585 c-11 -8 -30 -22 -43 -32 -14 -10 -20 -23 -17 -33 3 -9 -3
-24 -15 -35 -11 -10 -20 -26 -20 -35 0 -9 -5 -21 -11 -27 -9 -9 -7 -16 6 -29
21 -22 48 -8 53 27 2 13 8 28 13 34 5 5 9 22 9 37 0 20 5 28 18 28 39 0 71 24
70 52 -1 22 -6 28 -22 28 -12 0 -30 -7 -41 -15z"/>
<path d="M6730 7585 c0 -8 5 -15 10 -15 6 0 10 7 10 15 0 8 -4 15 -10 15 -5 0
-10 -7 -10 -15z"/>
<path d="M3006 7581 c-4 -7 -5 -15 -2 -18 9 -9 19 4 14 18 -4 11 -6 11 -12 0z"/>
<path d="M4323 7579 c-7 -7 -13 -28 -13 -47 l0 -33 30 18 c35 20 36 24 13 52
-15 18 -20 20 -30 10z"/>
<path d="M5400 7568 c0 -9 5 -20 10 -23 13 -8 13 5 0 25 -8 13 -10 13 -10 -2z"/>
<path d="M6150 7559 c0 -5 5 -7 10 -4 6 3 10 8 10 11 0 2 -4 4 -10 4 -5 0 -10
-5 -10 -11z"/>
<path d="M5770 7550 c0 -5 9 -10 21 -10 11 0 17 5 14 10 -3 6 -13 10 -21 10
-8 0 -14 -4 -14 -10z"/>
<path d="M5950 7520 c0 -5 5 -10 11 -10 5 0 7 5 4 10 -3 6 -8 10 -11 10 -2 0
-4 -4 -4 -10z"/>
<path d="M7964 7515 c-17 -13 -17 -14 -2 -15 9 0 20 5 23 11 11 17 0 20 -21 4z"/>
<path d="M2766 7501 c-6 -10 31 -47 40 -39 6 7 -17 48 -28 48 -4 0 -9 -4 -12
-9z"/>
<path d="M3212 7490 c0 -14 2 -19 5 -12 2 6 2 18 0 25 -3 6 -5 1 -5 -13z"/>
<path d="M2960 7489 c0 -5 5 -7 10 -4 6 3 10 8 10 11 0 2 -4 4 -10 4 -5 0 -10
-5 -10 -11z"/>
<path d="M7760 7470 c0 -19 3 -21 12 -12 9 9 9 15 0 24 -9 9 -12 7 -12 -12z"/>
<path d="M7450 7454 c0 -17 17 -36 24 -26 3 5 -1 15 -9 22 -8 7 -15 9 -15 4z"/>
<path d="M6405 7420 c3 -5 8 -10 11 -10 2 0 4 5 4 10 0 6 -5 10 -11 10 -5 0
-7 -4 -4 -10z"/>
<path d="M8040 7399 c0 -11 5 -17 10 -14 6 3 10 13 10 21 0 8 -4 14 -10 14 -5
0 -10 -9 -10 -21z"/>
<path d="M2901 7391 c-12 -7 -11 -12 1 -30 l15 -22 7 23 c10 41 5 47 -23 29z"/>
<path d="M2450 7375 c0 -9 5 -15 11 -13 6 2 11 8 11 13 0 5 -5 11 -11 13 -6 2
-11 -4 -11 -13z"/>
<path d="M2631 7356 c-16 -19 -11 -29 8 -17 7 5 12 14 9 21 -3 9 -8 7 -17 -4z"/>
<path d="M4315 7350 c-10 -11 -13 -20 -7 -20 7 0 12 -9 12 -20 0 -11 7 -20 15
-20 9 0 18 -7 21 -15 8 -21 24 -19 24 3 0 10 4 22 9 28 5 5 7 21 4 37 -4 21
-11 27 -33 27 -15 0 -35 -9 -45 -20z"/>
<path d="M7652 7350 c0 -14 2 -19 5 -12 2 6 2 18 0 25 -3 6 -5 1 -5 -13z"/>
<path d="M7565 7347 c-4 -10 -5 -21 -1 -24 10 -10 18 4 13 24 -4 17 -4 17 -12
0z"/>
<path d="M2534 7339 c-3 -6 -17 -8 -30 -5 -19 5 -24 2 -24 -14 0 -11 7 -20 15
-20 8 0 15 -4 15 -10 0 -5 5 -10 10 -10 6 0 10 8 10 19 0 10 10 26 23 34 18
13 19 16 5 16 -9 1 -20 -4 -24 -10z"/>
<path d="M3241 7314 c0 -11 3 -14 6 -6 3 7 2 16 -1 19 -3 4 -6 -2 -5 -13z"/>
<path d="M9130 7316 c0 -8 -12 -17 -27 -19 -16 -2 9 -5 54 -6 92 -1 114 11 48
28 -58 15 -75 14 -75 -3z"/>
<path d="M6396 7298 c-20 -28 -20 -48 -1 -84 l15 -29 0 27 c0 16 8 33 19 39
15 10 16 16 7 41 -13 34 -20 35 -40 6z"/>
<path d="M2654 7295 c-8 -20 3 -48 16 -40 13 8 13 55 0 55 -6 0 -13 -7 -16
-15z"/>
<path d="M7460 7285 c0 -8 5 -15 10 -15 6 0 10 7 10 15 0 8 -4 15 -10 15 -5 0
-10 -7 -10 -15z"/>
<path d="M7925 7290 c28 -12 37 -12 30 0 -3 6 -16 10 -28 9 -21 0 -21 -1 -2
-9z"/>
<path d="M8212 7286 c1 -10 8 -17 13 -17 15 1 12 24 -3 29 -9 3 -13 -2 -10
-12z"/>
<path d="M7997 7283 c-12 -11 -8 -23 8 -23 8 0 15 7 15 15 0 16 -12 20 -23 8z"/>
<path d="M7330 7271 c0 -10 30 -24 37 -17 3 2 -5 9 -16 16 -12 6 -21 7 -21 1z"/>
<path d="M7665 7269 c-4 -6 -5 -12 -2 -15 2 -3 7 2 10 11 7 17 1 20 -8 4z"/>
<path d="M2527 7236 c-8 -21 16 -39 31 -24 8 8 9 15 1 25 -15 17 -25 17 -32
-1z"/>
<path d="M9290 7210 c0 -5 5 -10 10 -10 6 0 10 5 10 10 0 6 -4 10 -10 10 -5 0
-10 -4 -10 -10z"/>
<path d="M6090 7190 c0 -5 5 -10 11 -10 5 0 7 5 4 10 -3 6 -8 10 -11 10 -2 0
-4 -4 -4 -10z"/>
<path d="M3253 7183 c-20 -8 -14 -26 16 -50 l29 -23 -10 40 c-11 40 -13 43
-35 33z"/>
<path d="M7300 7180 c0 -5 5 -10 10 -10 6 0 10 5 10 10 0 6 -4 10 -10 10 -5 0
-10 -4 -10 -10z"/>
<path d="M3200 7166 c0 -9 5 -16 10 -16 6 0 10 4 10 9 0 6 -4 13 -10 16 -5 3
-10 -1 -10 -9z"/>
<path d="M8881 7144 c0 -11 3 -14 6 -6 3 7 2 16 -1 19 -3 4 -6 -2 -5 -13z"/>
<path d="M7520 7110 c0 -11 4 -20 9 -20 5 0 7 9 4 20 -3 11 -7 20 -9 20 -2 0
-4 -9 -4 -20z"/>
<path d="M7237 7103 c-10 -10 -8 -53 2 -53 8 0 20 32 21 53 0 9 -14 9 -23 0z"/>
<path d="M7390 7093 c0 -29 -11 -34 -51 -23 -43 13 -62 -8 -53 -56 5 -29 3
-32 -26 -38 -50 -10 -52 -9 -49 36 4 47 -9 59 -29 27 -9 -15 -10 -25 -3 -32 5
-5 7 -22 4 -37 -6 -31 11 -47 32 -30 10 8 19 9 35 0 17 -9 26 -7 49 10 35 24
53 26 44 4 -5 -14 -1 -15 26 -9 24 5 32 3 37 -9 9 -23 34 -1 27 23 -3 10 0 22
5 25 6 3 8 15 5 26 -3 11 0 20 6 20 6 0 11 7 11 15 0 8 -4 15 -10 15 -5 0 -21
12 -35 27 -24 27 -25 27 -25 6z m0 -103 c9 -16 8 -20 -5 -20 -8 0 -15 9 -15
20 0 11 2 20 5 20 2 0 9 -9 15 -20z"/>
<path d="M7745 7099 c-4 -6 -5 -13 -2 -16 7 -7 27 6 27 18 0 12 -17 12 -25 -2z"/>
<path d="M4692 7070 c-10 -17 -10 -20 3 -20 8 0 15 2 15 4 0 2 3 11 6 20 9 23
-9 20 -24 -4z"/>
<path d="M5720 7080 c0 -5 5 -10 10 -10 6 0 10 5 10 10 0 6 -4 10 -10 10 -5 0
-10 -4 -10 -10z"/>
<path d="M3830 7070 c0 -5 5 -10 10 -10 6 0 10 5 10 10 0 6 -4 10 -10 10 -5 0
-10 -4 -10 -10z"/>
<path d="M7515 7023 c10 -43 23 -54 45 -41 18 11 18 14 2 40 -9 15 -25 28 -35
28 -16 0 -18 -5 -12 -27z"/>
<path d="M8606 6995 c-4 -12 -1 -16 11 -13 18 3 21 20 5 26 -5 1 -12 -4 -16
-13z"/>
<path d="M8087 6984 c-4 -4 -7 -14 -7 -23 0 -11 3 -12 11 -4 6 6 10 16 7 23
-2 6 -7 8 -11 4z"/>
<path d="M2517 6963 c-13 -12 -7 -33 8 -33 8 0 15 9 15 20 0 20 -11 26 -23 13z"/>
<path d="M7526 6903 c-9 -79 -4 -185 8 -173 5 5 9 23 8 40 -1 33 12 39 26 13
8 -13 13 -8 31 32 26 58 26 57 1 73 -11 7 -20 23 -20 37 0 14 -4 25 -9 25 -5
0 -16 3 -24 6 -12 4 -16 -7 -21 -53z"/>
<path d="M7630 6946 c0 -9 5 -16 10 -16 6 0 10 4 10 9 0 6 -4 13 -10 16 -5 3
-10 -1 -10 -9z"/>
<path d="M7725 6950 c-3 -5 -1 -10 4 -10 6 0 11 5 11 10 0 6 -2 10 -4 10 -3 0
-8 -4 -11 -10z"/>
<path d="M3342 6939 c2 -6 8 -10 13 -10 5 0 11 4 13 10 2 6 -4 11 -13 11 -9 0
-15 -5 -13 -11z"/>
<path d="M8877 6915 c-4 -8 -2 -17 3 -20 6 -4 10 3 10 14 0 25 -6 27 -13 6z"/>
<path d="M7227 6914 c-7 -8 20 -64 31 -64 13 0 32 23 32 37 0 7 -8 13 -18 13
-10 0 -23 5 -28 10 -6 6 -13 7 -17 4z"/>
<path d="M8572 6880 c-11 -18 -9 -24 14 -45 21 -19 30 -22 45 -14 11 5 19 20
19 34 0 20 -5 25 -25 25 -14 0 -25 5 -25 10 0 17 -14 11 -28 -10z"/>
<path d="M8000 6875 c-10 -12 -10 -15 3 -15 19 0 31 16 18 24 -5 3 -14 -1 -21
-9z"/>
<path d="M8740 6866 c0 -8 -3 -21 -6 -30 -4 -10 -1 -16 8 -16 10 0 15 11 15
30 0 17 -4 30 -9 30 -4 0 -8 -6 -8 -14z"/>
<path d="M8805 6870 c-3 -5 -2 -10 4 -10 5 0 13 5 16 10 3 6 2 10 -4 10 -5 0
-13 -4 -16 -10z"/>
<path d="M6030 6851 c0 -20 17 -37 27 -28 7 8 -7 47 -18 47 -5 0 -9 -9 -9 -19z"/>
<path d="M9633 6830 c0 -16 4 -30 9 -30 10 0 10 31 0 48 -6 8 -9 2 -9 -18z"/>
<path d="M8995 6830 c-3 -5 -1 -10 4 -10 6 0 11 5 11 10 0 6 -2 10 -4 10 -3 0
-8 -4 -11 -10z"/>
<path d="M8877 6804 c-4 -4 -7 -14 -7 -23 0 -11 3 -12 11 -4 6 6 10 16 7 23
-2 6 -7 8 -11 4z"/>
<path d="M2675 6772 c-21 -7 -40 -14 -41 -15 -1 -1 6 -16 16 -34 l17 -32 36
25 c20 13 43 24 51 24 9 0 16 5 16 11 0 6 -9 8 -20 4 -14 -4 -22 -1 -28 12 -6
17 -10 17 -47 5z"/>
<path d="M7140 6780 c0 -5 5 -10 11 -10 5 0 7 5 4 10 -3 6 -8 10 -11 10 -2 0
-4 -4 -4 -10z"/>
<path d="M9334 6765 c19 -14 36 -12 36 6 0 5 -12 9 -27 9 -27 -1 -27 -1 -9
-15z"/>
<path d="M7364 6742 c-10 -7 -34 -45 -34 -55 0 -3 13 -7 30 -9 31 -5 40 5 40
48 0 24 -15 31 -36 16z"/>
<path d="M7665 6730 c4 -6 11 -8 16 -5 14 9 11 15 -7 15 -8 0 -12 -5 -9 -10z"/>
<path d="M9686 6725 c4 -8 11 -15 16 -15 6 0 5 6 -2 15 -7 8 -14 15 -16 15 -2
0 -1 -7 2 -15z"/>
<path d="M7987 6716 c-8 -20 26 -38 61 -33 l27 4 -27 2 c-15 0 -33 10 -41 21
-12 18 -15 18 -20 6z"/>
<path d="M9370 6701 c-12 -24 -13 -31 -1 -31 5 0 11 11 13 25 6 30 2 32 -12 6z"/>
<path d="M8847 6699 c7 -7 15 -10 18 -7 3 3 -2 9 -12 12 -14 6 -15 5 -6 -5z"/>
<path d="M2227 6644 c-4 -21 0 -35 14 -49 19 -19 19 -19 19 11 0 17 -6 39 -14
49 -12 17 -13 16 -19 -11z"/>
<path d="M7490 6660 c0 -5 5 -10 10 -10 6 0 10 5 10 10 0 6 -4 10 -10 10 -5 0
-10 -4 -10 -10z"/>
<path d="M9525 6660 c3 -5 15 -10 25 -10 10 0 22 5 25 10 4 6 -7 10 -25 10
-18 0 -29 -4 -25 -10z"/>
<path d="M6290 6643 c0 -13 5 -23 10 -23 13 0 13 11 0 30 -8 12 -10 11 -10 -7z"/>
<path d="M8535 6651 c-3 -5 4 -13 16 -16 23 -8 34 -1 24 14 -8 13 -32 14 -40
2z"/>
<path d="M7390 6634 c0 -8 5 -12 10 -9 6 4 8 11 5 16 -9 14 -15 11 -15 -7z"/>
<path d="M5796 6622 c-3 -6 -1 -14 5 -17 15 -10 25 3 12 16 -7 7 -13 7 -17 1z"/>
<path d="M7654 6623 c12 -12 56 -14 74 -4 13 8 6 10 -32 11 -27 0 -46 -3 -42
-7z"/>
<path d="M6110 6610 c0 -5 5 -10 10 -10 6 0 10 5 10 10 0 6 -4 10 -10 10 -5 0
-10 -4 -10 -10z"/>
<path d="M7485 6591 c-3 -5 -1 -12 4 -15 5 -3 11 1 15 9 6 16 -9 21 -19 6z"/>
<path d="M9851 6574 c0 -11 3 -14 6 -6 3 7 2 16 -1 19 -3 4 -6 -2 -5 -13z"/>
<path d="M8538 6567 c6 -7 16 -24 21 -38 9 -22 10 -21 10 14 1 31 -2 37 -20
37 -17 0 -19 -3 -11 -13z"/>
<path d="M2254 6546 c-3 -8 -1 -23 5 -33 9 -15 10 -13 11 15 0 34 -7 42 -16
18z"/>
<path d="M5624 6545 c8 -8 18 -15 22 -15 3 0 1 7 -6 15 -7 8 -17 15 -22 15 -5
0 -3 -7 6 -15z"/>
<path d="M7570 6519 c0 -11 5 -17 10 -14 6 3 10 13 10 21 0 8 -4 14 -10 14 -5
0 -10 -9 -10 -21z"/>
<path d="M8826 6524 c-8 -20 -8 -24 2 -24 4 0 8 9 9 20 2 24 -3 26 -11 4z"/>
<path d="M8950 6506 c0 -9 7 -16 16 -16 9 0 14 5 12 12 -6 18 -28 21 -28 4z"/>
<path d="M7490 6480 c0 -11 5 -20 10 -20 6 0 10 9 10 20 0 11 -4 20 -10 20 -5
0 -10 -9 -10 -20z"/>
<path d="M7990 6480 c-7 -4 -10 -12 -6 -18 9 -14 56 -21 56 -8 0 17 -35 35
-50 26z"/>
<path d="M6291 6458 c0 -7 7 -29 14 -48 l13 -35 1 32 c1 17 -2 38 -5 47 -7 19
-24 21 -23 4z"/>
<path d="M3366 6441 c-3 -4 1 -17 9 -27 17 -23 19 -66 4 -81 -8 -8 -6 -19 8
-39 l18 -28 3 65 c2 36 -2 78 -7 92 -10 27 -25 35 -35 18z"/>
<path d="M8210 6440 c-12 -7 -12 -12 -2 -22 9 -9 15 -9 24 0 8 8 9 15 2 22 -5
5 -15 6 -24 0z"/>
<path d="M9855 6430 c3 -5 11 -10 16 -10 6 0 7 5 4 10 -3 6 -11 10 -16 10 -6
0 -7 -4 -4 -10z"/>
<path d="M6935 6420 c-3 -5 -1 -18 4 -27 9 -16 10 -14 11 10 0 28 -5 34 -15
17z"/>
<path d="M7500 6402 c0 -12 19 -26 26 -19 2 2 -2 10 -11 17 -9 8 -15 8 -15 2z"/>
<path d="M5120 6385 c-10 -13 -9 -15 9 -15 11 0 21 4 21 9 0 18 -18 21 -30 6z"/>
<path d="M5900 6390 c0 -5 5 -10 10 -10 6 0 10 5 10 10 0 6 -4 10 -10 10 -5 0
-10 -4 -10 -10z"/>
<path d="M7955 6390 c3 -5 8 -10 11 -10 2 0 4 5 4 10 0 6 -5 10 -11 10 -5 0
-7 -4 -4 -10z"/>
<path d="M9155 6390 c-19 -8 -19 -9 2 -9 12 -1 25 4 28 9 7 12 -2 12 -30 0z"/>
<path d="M9375 6389 c-4 -6 -5 -13 -2 -16 7 -7 27 6 27 18 0 12 -17 12 -25 -2z"/>
<path d="M9707 6361 c-4 -19 -5 -36 -2 -39 10 -11 16 7 13 40 l-3 33 -8 -34z"/>
<path d="M8800 6370 c0 -5 5 -10 10 -10 6 0 10 5 10 10 0 6 -4 10 -10 10 -5 0
-10 -4 -10 -10z"/>
<path d="M5795 6360 c-3 -5 -2 -10 4 -10 5 0 13 5 16 10 3 6 2 10 -4 10 -5 0
-13 -4 -16 -10z"/>
<path d="M6312 6350 c0 -14 2 -19 5 -12 2 6 2 18 0 25 -3 6 -5 1 -5 -13z"/>
<path d="M7630 6356 c0 -25 12 -46 26 -46 20 0 29 27 14 45 -16 19 -40 19 -40
1z"/>
<path d="M9052 6353 c5 -26 38 -29 38 -4 0 15 -6 21 -21 21 -14 0 -19 -5 -17
-17z"/>
<path d="M9930 6350 c0 -5 5 -10 10 -10 6 0 10 5 10 10 0 6 -4 10 -10 10 -5 0
-10 -4 -10 -10z"/>
<path d="M7730 6335 c0 -8 4 -15 10 -15 5 0 7 7 4 15 -4 8 -8 15 -10 15 -2 0
-4 -7 -4 -15z"/>
<path d="M9303 6336 c-13 -6 -23 -20 -23 -31 0 -11 -3 -30 -6 -41 -5 -19 -1
-22 30 -26 26 -3 36 0 36 10 0 9 -7 11 -21 7 -17 -6 -20 -3 -17 12 2 10 9 18
16 18 18 0 30 24 25 46 -6 21 -8 21 -40 5z"/>
<path d="M7835 6310 c3 -5 11 -10 16 -10 6 0 7 5 4 10 -3 6 -11 10 -16 10 -6
0 -7 -4 -4 -10z"/>
<path d="M8797 6313 c-4 -3 -7 -16 -6 -27 0 -19 1 -19 10 3 10 24 8 36 -4 24z"/>
<path d="M8970 6310 c0 -5 7 -7 15 -4 8 4 15 8 15 10 0 2 -7 4 -15 4 -8 0 -15
-4 -15 -10z"/>
<path d="M5152 6287 c-9 -11 -10 -17 -2 -22 15 -9 23 -1 18 21 -3 15 -4 16
-16 1z"/>
<path d="M9596 6292 c-3 -6 -1 -14 5 -17 15 -10 25 3 12 16 -7 7 -13 7 -17 1z"/>
<path d="M8480 6280 c0 -5 -24 -10 -52 -10 -52 -1 -53 -1 -23 -14 25 -10 36
-10 67 3 39 16 50 31 23 31 -8 0 -15 -4 -15 -10z"/>
<path d="M9417 6284 c-3 -3 -3 -12 -1 -19 3 -8 -5 -19 -18 -26 -13 -6 -31 -20
-41 -30 -17 -18 -17 -19 18 -19 25 0 38 5 42 18 3 9 15 29 25 44 10 14 18 29
18 32 0 8 -35 8 -43 0z"/>
<path d="M2846 6253 c9 -38 14 -42 14 -10 0 14 -5 29 -10 32 -7 4 -8 -3 -4
-22z"/>
<path d="M8955 6250 c3 -5 8 -10 11 -10 2 0 4 5 4 10 0 6 -5 10 -11 10 -5 0
-7 -4 -4 -10z"/>
<path d="M6130 6240 c0 -5 5 -10 11 -10 5 0 7 5 4 10 -3 6 -8 10 -11 10 -2 0
-4 -4 -4 -10z"/>
<path d="M6396 6241 c-4 -6 -1 -21 6 -33 l13 -23 3 24 c4 26 -12 49 -22 32z"/>
<path d="M7619 6238 c7 -10 11 -25 7 -33 -6 -17 9 -21 20 -4 3 6 -4 21 -17 33
-13 11 -17 13 -10 4z"/>
<path d="M8800 6225 c0 -15 4 -24 10 -20 6 3 10 12 10 20 0 8 -4 17 -10 20 -6
4 -10 -5 -10 -20z"/>
<path d="M2032 6226 c1 -10 8 -17 13 -17 15 1 12 24 -3 29 -9 3 -13 -2 -10
-12z"/>
<path d="M2100 6219 c0 -5 5 -7 10 -4 6 3 10 8 10 11 0 2 -4 4 -10 4 -5 0 -10
-5 -10 -11z"/>
<path d="M8210 6216 c0 -9 5 -16 10 -16 6 0 10 4 10 9 0 6 -4 13 -10 16 -5 3
-10 -1 -10 -9z"/>
<path d="M9890 6205 c0 -8 -4 -15 -10 -15 -5 0 -10 -3 -10 -7 0 -13 83 -8 88
5 2 7 -5 12 -17 12 -11 0 -23 5 -26 10 -9 15 -25 12 -25 -5z"/>
<path d="M6305 6190 c-3 -5 -1 -10 4 -10 6 0 11 5 11 10 0 6 -2 10 -4 10 -3 0
-8 -4 -11 -10z"/>
<path d="M3860 6180 c0 -5 10 -10 23 -10 18 0 19 2 7 10 -19 13 -30 13 -30 0z"/>
<path d="M9439 6173 c-1 -10 -1 -22 0 -26 1 -5 -8 -21 -19 -37 -22 -31 -26
-54 -9 -48 16 5 70 108 63 119 -9 16 -34 10 -35 -8z"/>
<path d="M4230 6166 c0 -11 9 -16 30 -16 17 0 30 5 30 10 0 6 -6 10 -14 10 -8
0 -21 3 -30 6 -11 4 -16 1 -16 -10z"/>
<path d="M8232 6159 c-7 -11 -11 -23 -9 -25 7 -7 29 24 25 36 -2 6 -9 1 -16
-11z"/>
<path d="M2050 6156 c0 -8 5 -18 10 -21 6 -3 10 1 10 9 0 8 -4 18 -10 21 -5 3
-10 -1 -10 -9z"/>
<path d="M2860 6143 c0 -15 -3 -38 -6 -50 -5 -17 -2 -23 10 -23 12 0 16 10 16
44 0 25 -4 48 -10 51 -6 4 -10 -6 -10 -22z"/>
<path d="M9357 6136 c-12 -9 -14 -16 -7 -21 12 -7 40 11 40 26 0 13 -12 11
-33 -5z"/>
<path d="M9589 6138 c15 -20 97 -27 85 -7 -4 6 -19 9 -37 5 -18 -4 -36 -1 -46
6 -14 12 -14 11 -2 -4z"/>
<path d="M9775 6140 c-3 -5 -1 -10 4 -10 6 0 11 5 11 10 0 6 -2 10 -4 10 -3 0
-8 -4 -11 -10z"/>
<path d="M8792 6129 c2 -7 10 -15 17 -17 8 -3 12 1 9 9 -2 7 -10 15 -17 17 -8
3 -12 -1 -9 -9z"/>
<path d="M8050 6120 c0 -13 11 -13 30 0 12 8 11 10 -7 10 -13 0 -23 -4 -23
-10z"/>
<path d="M9192 6100 c-16 -26 -15 -30 3 -30 8 0 15 4 15 9 0 5 3 16 6 25 9 23
-9 20 -24 -4z"/>
<path d="M3995 6097 c13 -10 19 -31 22 -73 3 -32 5 -70 6 -84 3 -29 14 -50 28
-50 12 0 12 43 -1 56 -9 9 -14 53 -9 84 1 8 -1 30 -6 48 -6 26 -13 32 -33 32
-24 0 -25 -1 -7 -13z"/>
<path d="M8016 6103 c-11 -11 -6 -23 9 -23 8 0 15 4 15 9 0 13 -16 22 -24 14z"/>
<path d="M9818 6093 c7 -3 16 -2 19 1 4 3 -2 6 -13 5 -11 0 -14 -3 -6 -6z"/>
<path d="M5016 6081 c10 -9 144 -35 150 -28 2 2 -19 11 -47 20 -55 18 -119 23
-103 8z"/>
<path d="M6290 6080 c0 -5 5 -10 10 -10 6 0 10 5 10 10 0 6 -4 10 -10 10 -5 0
-10 -4 -10 -10z"/>
<path d="M5332 6069 c2 -7 10 -15 17 -17 8 -3 12 1 9 9 -2 7 -10 15 -17 17 -8
3 -12 -1 -9 -9z"/>
<path d="M2875 6009 c4 -24 10 -62 14 -83 5 -36 7 -38 20 -22 12 14 12 22 3
37 -17 26 -15 50 2 43 8 -3 24 -1 35 6 16 8 30 6 66 -10 24 -11 49 -29 55 -40
7 -13 21 -20 39 -20 25 0 29 4 35 38 9 55 8 60 -13 72 -14 7 -27 6 -48 -5 -42
-22 -90 -19 -104 6 -8 15 -16 19 -32 14 -30 -9 -39 -9 -61 0 -18 8 -19 5 -11
-36z"/>
<path d="M3462 6038 c5 -15 28 -23 28 -10 0 5 -7 13 -16 16 -10 4 -14 1 -12
-6z"/>
<path d="M7445 6030 c-3 -5 1 -10 10 -10 9 0 13 5 10 10 -3 6 -8 10 -10 10 -2
0 -7 -4 -10 -10z"/>
<path d="M4831 6014 c0 -11 3 -14 6 -6 3 7 2 16 -1 19 -3 4 -6 -2 -5 -13z"/>
<path d="M7958 6009 c-20 -21 -22 -29 -9 -29 5 0 16 11 25 25 19 29 9 32 -16
4z"/>
<path d="M2630 6010 c0 -5 5 -10 10 -10 6 0 10 5 10 10 0 6 -4 10 -10 10 -5 0
-10 -4 -10 -10z"/>
<path d="M7328 6013 c6 -2 18 -2 25 0 6 3 1 5 -13 5 -14 0 -19 -2 -12 -5z"/>
<path d="M3510 5970 c20 -13 33 -13 25 0 -3 6 -14 10 -23 10 -15 0 -15 -2 -2
-10z"/>
<path d="M6605 5970 c3 -5 8 -10 11 -10 2 0 4 5 4 10 0 6 -5 10 -11 10 -5 0
-7 -4 -4 -10z"/>
<path d="M8174 5965 c3 -9 0 -25 -6 -35 -9 -15 -10 -22 -1 -31 8 -8 15 -4 27
19 22 42 20 62 -5 62 -15 0 -19 -5 -15 -15z"/>
<path d="M2265 5950 c3 -5 12 -7 20 -3 21 7 19 13 -6 13 -11 0 -18 -4 -14 -10z"/>
<path d="M5160 5935 c0 -8 5 -15 10 -15 6 0 10 7 10 15 0 8 -4 15 -10 15 -5 0
-10 -7 -10 -15z"/>
<path d="M7110 5931 c0 -12 5 -21 10 -21 6 0 10 6 10 14 0 8 -4 18 -10 21 -5
3 -10 -3 -10 -14z"/>
<path d="M2551 5858 c2 -35 9 -73 17 -85 9 -15 13 -44 11 -86 -3 -43 1 -70 9
-80 9 -11 11 -30 7 -61 -5 -31 -4 -46 4 -46 6 0 11 7 11 15 0 9 7 27 16 40 24
37 24 73 -3 123 -14 26 -26 63 -27 82 -1 19 -7 46 -15 59 -11 20 -11 26 2 38
11 12 12 20 3 39 -6 13 -17 24 -24 24 -10 0 -13 -16 -11 -62z"/>
<path d="M2754 5894 c-4 -14 -24 -39 -46 -54 -41 -30 -41 -34 8 -44 42 -9 62
15 62 77 0 51 -14 63 -24 21z"/>
<path d="M7230 5876 c0 -9 5 -16 10 -16 6 0 10 4 10 9 0 6 -4 13 -10 16 -5 3
-10 -1 -10 -9z"/>
<path d="M3480 5851 c0 -12 5 -21 10 -21 6 0 10 6 10 14 0 8 -4 18 -10 21 -5
3 -10 -3 -10 -14z"/>
<path d="M6005 5840 c3 -5 11 -10 16 -10 6 0 7 5 4 10 -3 6 -11 10 -16 10 -6
0 -7 -4 -4 -10z"/>
<path d="M9168 5843 c7 -3 16 -2 19 1 4 3 -2 6 -13 5 -11 0 -14 -3 -6 -6z"/>
<path d="M4891 5824 c0 -11 3 -14 6 -6 3 7 2 16 -1 19 -3 4 -6 -2 -5 -13z"/>
<path d="M8549 5823 c-13 -15 -12 -15 9 -4 23 12 28 21 13 21 -5 0 -15 -7 -22
-17z"/>
<path d="M3720 5820 c0 -5 7 -10 15 -10 8 0 15 5 15 10 0 6 -7 10 -15 10 -8 0
-15 -4 -15 -10z"/>
<path d="M3530 5785 c0 -46 15 -46 16 0 0 19 -3 35 -8 35 -4 0 -8 -16 -8 -35z"/>
<path d="M4960 5800 c0 -5 7 -10 16 -10 8 0 12 5 9 10 -3 6 -10 10 -16 10 -5
0 -9 -4 -9 -10z"/>
<path d="M8499 5783 c-13 -17 -13 -17 6 -3 11 8 22 16 24 17 2 2 0 3 -6 3 -6
0 -17 -8 -24 -17z"/>
<path d="M9556 5786 c-17 -8 -24 -16 -18 -20 6 -4 23 1 37 10 41 27 31 32 -19
10z"/>
<path d="M2708 5729 c-12 -7 -18 -22 -18 -46 0 -20 -5 -65 -11 -100 -6 -35 -9
-67 -6 -70 8 -8 77 50 77 65 0 6 6 12 14 12 8 0 17 -6 19 -12 3 -7 6 1 6 17 0
17 -6 41 -14 55 -8 14 -14 40 -15 58 0 34 -18 41 -52 21z"/>
<path d="M6124 5724 c3 -9 6 -21 6 -27 0 -16 20 14 20 31 0 6 -7 12 -16 12
-11 0 -14 -5 -10 -16z"/>
<path d="M9120 5699 c-13 -24 -4 -41 10 -19 10 16 13 40 5 40 -2 0 -9 -9 -15
-21z"/>
<path d="M3730 5703 c0 -5 5 -15 10 -23 8 -12 10 -11 10 8 0 12 -4 22 -10 22
-5 0 -10 -3 -10 -7z"/>
<path d="M3845 5700 c3 -5 8 -10 11 -10 2 0 4 5 4 10 0 6 -5 10 -11 10 -5 0
-7 -4 -4 -10z"/>
<path d="M2480 5676 c0 -9 5 -16 10 -16 6 0 10 4 10 9 0 6 -4 13 -10 16 -5 3
-10 -1 -10 -9z"/>
<path d="M3551 5674 c0 -11 3 -14 6 -6 3 7 2 16 -1 19 -3 4 -6 -2 -5 -13z"/>
<path d="M3480 5667 c0 -8 7 -28 15 -43 l16 -29 -3 39 c-3 36 -28 66 -28 33z"/>
<path d="M5470 5661 c0 -12 5 -21 10 -21 6 0 10 6 10 14 0 8 -4 18 -10 21 -5
3 -10 -3 -10 -14z"/>
<path d="M9035 5669 c-4 -6 -5 -13 -2 -16 7 -7 27 6 27 18 0 12 -17 12 -25 -2z"/>
<path d="M9295 5670 c3 -5 8 -10 11 -10 2 0 4 5 4 10 0 6 -5 10 -11 10 -5 0
-7 -4 -4 -10z"/>
<path d="M3247 5662 c-3 -4 12 -13 34 -19 35 -9 40 -8 37 6 -3 17 -62 29 -71
13z"/>
<path d="M9507 5648 c-8 -30 -3 -32 28 -12 20 13 23 19 13 25 -22 14 -35 10
-41 -13z"/>
<path d="M6705 5630 c-3 -5 1 -10 9 -10 9 0 16 5 16 10 0 6 -4 10 -9 10 -6 0
-13 -4 -16 -10z"/>
<path d="M8840 5625 c-7 -9 -8 -15 -2 -15 5 0 12 7 16 15 3 8 4 15 2 15 -2 0
-9 -7 -16 -15z"/>
<path d="M2226 5595 c9 -14 21 -25 27 -25 6 0 0 11 -13 25 -13 14 -25 25 -27
25 -2 0 4 -11 13 -25z"/>
<path d="M5530 5592 c0 -12 19 -26 26 -19 2 2 -2 10 -11 17 -9 8 -15 8 -15 2z"/>
<path d="M8630 5571 c0 -15 56 -51 79 -51 28 0 26 6 -6 35 -28 24 -73 34 -73
16z"/>
<path d="M6630 5560 c0 -8 5 -22 10 -30 9 -13 10 -13 10 0 0 8 -5 22 -10 30
-9 13 -10 13 -10 0z"/>
<path d="M9180 5535 c7 -9 15 -13 17 -11 7 7 -7 26 -19 26 -6 0 -6 -6 2 -15z"/>
<path d="M6641 5472 c-13 -25 0 -66 23 -75 20 -8 21 37 2 72 -13 24 -14 24
-25 3z"/>
<path d="M3780 5464 c0 -16 27 -43 43 -44 14 0 7 27 -11 43 -23 21 -32 21 -32
1z"/>
<path d="M6186 5434 c-4 -14 -5 -29 -2 -31 3 -3 8 7 12 21 3 15 4 29 1 32 -2
3 -8 -7 -11 -22z"/>
<path d="M2970 5401 c0 -6 5 -13 10 -16 6 -3 10 1 10 9 0 9 -4 16 -10 16 -5 0
-10 -4 -10 -9z"/>
<path d="M3259 5378 c-24 -20 -49 -65 -49 -88 0 -29 24 -25 41 8 7 15 21 38
31 51 10 13 18 28 18 32 0 13 -24 11 -41 -3z"/>
<path d="M5970 5275 c-7 -8 -21 -15 -31 -15 -22 0 -26 -25 -5 -33 20 -8 127
23 120 35 -3 5 -14 6 -25 3 -12 -4 -21 -1 -25 9 -8 20 -18 20 -34 1z"/>
<path d="M5425 5231 c-3 -5 -1 -12 5 -16 5 -3 10 -16 10 -28 0 -12 9 -28 20
-35 24 -15 25 -9 3 45 -18 43 -27 51 -38 34z"/>
<path d="M5871 5154 c0 -11 3 -14 6 -6 3 7 2 16 -1 19 -3 4 -6 -2 -5 -13z"/>
<path d="M8717 5114 c-5 -26 6 -39 23 -29 15 9 12 42 -4 48 -9 4 -16 -3 -19
-19z"/>
<path d="M8890 5030 c0 -5 5 -10 11 -10 5 0 7 5 4 10 -3 6 -8 10 -11 10 -2 0
-4 -4 -4 -10z"/>
<path d="M4686 5011 c-5 -7 -3 -18 3 -24 14 -14 20 -6 11 17 -5 15 -9 16 -14
7z"/>
<path d="M3990 4965 c0 -14 5 -25 10 -25 6 0 10 11 10 25 0 14 -4 25 -10 25
-5 0 -10 -11 -10 -25z"/>
<path d="M3770 4932 c0 -7 -7 -12 -15 -12 -9 0 -12 -6 -9 -15 4 -8 10 -15 14
-15 11 0 24 40 16 47 -3 4 -6 1 -6 -5z"/>
<path d="M5470 4921 c0 -5 5 -13 10 -16 6 -3 10 -2 10 4 0 5 -4 13 -10 16 -5
3 -10 2 -10 -4z"/>
<path d="M6820 4908 c0 -7 5 -20 10 -28 8 -12 10 -11 10 7 0 12 -4 25 -10 28
-5 3 -10 0 -10 -7z"/>
<path d="M7586 4895 c-3 -8 -1 -15 4 -15 6 0 10 7 10 15 0 8 -2 15 -4 15 -2 0
-6 -7 -10 -15z"/>
<path d="M4780 4850 c0 -21 5 -30 16 -30 11 0 14 5 10 16 -3 9 -6 22 -6 30 0
8 -4 14 -10 14 -5 0 -10 -13 -10 -30z"/>
<path d="M5420 4861 c0 -15 38 -56 45 -49 4 4 -1 18 -12 32 -18 26 -33 33 -33
17z"/>
<path d="M5061 4736 c-2 -63 12 -95 23 -58 4 10 24 32 46 48 44 32 47 39 24
48 -10 4 -22 -1 -29 -11 -11 -15 -14 -15 -37 10 l-25 27 -2 -64z"/>
<path d="M8160 4790 c0 -6 -16 -20 -35 -31 -24 -14 -38 -32 -45 -57 -13 -50
-13 -79 1 -65 10 10 17 33 18 66 1 13 10 17 36 17 29 0 37 5 45 25 10 26 4 55
-11 55 -5 0 -9 -5 -9 -10z"/>
<path d="M7736 4772 c-3 -6 -1 -14 5 -17 15 -10 25 3 12 16 -7 7 -13 7 -17 1z"/>
<path d="M9010 4760 c-6 -12 -9 -24 -7 -27 3 -2 11 5 17 17 6 12 9 24 7 27 -3
2 -11 -5 -17 -17z"/>
<path d="M4993 4728 c-6 -24 -9 -45 -6 -48 9 -10 33 34 33 62 0 42 -14 34 -27
-14z"/>
<path d="M5297 4705 c-10 -14 -14 -25 -10 -25 9 0 43 36 43 45 0 12 -17 2 -33
-20z"/>
<path d="M5194 4645 c-6 -16 13 -55 26 -55 6 0 10 5 10 10 0 6 -4 10 -10 10
-5 0 -10 7 -10 16 0 8 4 13 9 9 5 -3 12 -1 15 4 3 5 -3 11 -15 14 -12 3 -22 0
-25 -8z"/>
<path d="M5275 4640 c4 -6 11 -8 16 -5 14 9 11 15 -7 15 -8 0 -12 -5 -9 -10z"/>
<path d="M5481 4595 c-2 -33 -6 -71 -10 -85 -8 -27 8 -84 29 -103 10 -10 12
-9 7 6 -4 9 -2 29 4 43 7 21 6 31 -5 43 -9 10 -16 43 -19 86 l-3 70 -3 -60z"/>
<path d="M5835 4630 c-3 -5 -1 -10 4 -10 6 0 11 5 11 10 0 6 -2 10 -4 10 -3 0
-8 -4 -11 -10z"/>
<path d="M3470 4595 c7 -9 15 -13 17 -11 7 7 -7 26 -19 26 -6 0 -6 -6 2 -15z"/>
<path d="M5240 4602 c0 -4 10 -13 21 -21 19 -11 21 -11 15 4 -3 9 -6 19 -6 21
0 2 -7 4 -15 4 -8 0 -15 -3 -15 -8z"/>
<path d="M8470 4600 c0 -5 5 -10 10 -10 6 0 10 5 10 10 0 6 -4 10 -10 10 -5 0
-10 -4 -10 -10z"/>
<path d="M6666 4575 c4 -8 8 -15 10 -15 2 0 4 7 4 15 0 8 -4 15 -10 15 -5 0
-7 -7 -4 -15z"/>
<path d="M5385 4560 c-3 -5 -2 -10 4 -10 5 0 13 5 16 10 3 6 2 10 -4 10 -5 0
-13 -4 -16 -10z"/>
<path d="M8024 4559 c-3 -6 -2 -15 4 -21 7 -7 14 -3 21 11 10 17 9 21 -3 21
-8 0 -18 -5 -22 -11z"/>
<path d="M8571 4539 c-16 -27 -14 -31 9 -17 15 10 22 10 32 0 14 -14 28 -16
28 -3 0 5 -13 16 -29 24 -25 13 -29 12 -40 -4z"/>
<path d="M6540 4540 c-11 -7 -2 -10 33 -10 26 0 47 5 47 10 0 13 -60 13 -80 0z"/>
<path d="M8701 4506 c-6 -16 -10 -34 -8 -40 3 -6 10 2 16 18 6 16 10 34 8 40
-3 6 -10 -2 -16 -18z"/>
<path d="M3410 4500 c0 -5 5 -10 10 -10 6 0 10 5 10 10 0 6 -4 10 -10 10 -5 0
-10 -4 -10 -10z"/>
<path d="M8210 4490 c0 -5 5 -10 10 -10 6 0 10 5 10 10 0 6 -4 10 -10 10 -5 0
-10 -4 -10 -10z"/>
<path d="M8176 4471 c-4 -6 -13 -8 -21 -4 -8 3 -15 0 -15 -6 0 -14 37 -14 45
0 4 6 5 13 2 15 -3 3 -8 1 -11 -5z"/>
<path d="M3245 4450 c3 -5 8 -10 11 -10 2 0 4 5 4 10 0 6 -5 10 -11 10 -5 0
-7 -4 -4 -10z"/>
<path d="M5180 4445 c-7 -9 -11 -18 -8 -20 3 -3 11 1 18 10 7 9 11 18 8 20 -3
3 -11 -1 -18 -10z"/>
<path d="M5650 4371 c0 -22 5 -43 10 -46 6 -4 10 10 10 34 0 22 -4 43 -10 46
-6 4 -10 -10 -10 -34z"/>
<path d="M4063 4383 c-7 -3 -13 -12 -13 -21 0 -15 2 -15 17 1 18 18 16 27 -4
20z"/>
<path d="M3186 4365 c-8 -9 -29 -21 -46 -26 -25 -9 -28 -14 -20 -29 6 -10 10
-31 10 -47 1 -38 30 -70 72 -78 23 -4 43 -17 57 -36 27 -36 41 -37 41 -3 0 41
-16 62 -43 57 -32 -6 -42 11 -27 46 9 24 8 33 -10 65 -12 20 -19 43 -16 51 7
19 1 19 -18 0z"/>
<path d="M5262 4350 c0 -14 2 -19 5 -12 2 6 2 18 0 25 -3 6 -5 1 -5 -13z"/>
<path d="M8180 4318 c0 -15 5 -30 11 -33 16 -11 17 -2 3 30 l-13 30 -1 -27z"/>
<path d="M8271 4320 c0 -14 4 -34 8 -45 7 -17 9 -16 15 9 5 21 3 34 -8 45 -15
14 -16 13 -15 -9z"/>
<path d="M8597 4303 c-3 -16 -3 -30 -1 -33 7 -7 24 23 24 43 0 27 -17 20 -23
-10z"/>
<path d="M4095 4310 c-8 -13 15 -13 35 0 12 8 11 10 -7 10 -12 0 -25 -4 -28
-10z"/>
<path d="M7910 4304 c0 -8 5 -12 10 -9 6 3 10 10 10 16 0 5 -4 9 -10 9 -5 0
-10 -7 -10 -16z"/>
<path d="M4400 4294 c0 -8 5 -12 10 -9 6 4 8 11 5 16 -9 14 -15 11 -15 -7z"/>
<path d="M8882 4258 c3 -7 15 -15 28 -16 21 -3 22 -2 11 12 -16 19 -44 21 -39
4z"/>
<path d="M9500 4257 c0 -9 5 -17 11 -17 6 0 9 -9 6 -20 -6 -23 5 -26 22 -7 8
11 5 19 -14 37 -21 19 -25 21 -25 7z"/>
<path d="M3520 4245 c0 -8 4 -15 10 -15 5 0 7 7 4 15 -4 8 -8 15 -10 15 -2 0
-4 -7 -4 -15z"/>
<path d="M8400 4250 c0 -6 7 -10 15 -10 8 0 15 2 15 4 0 2 -7 6 -15 10 -8 3
-15 1 -15 -4z"/>
<path d="M8445 4216 c0 -37 15 -44 15 -8 0 18 -4 32 -8 32 -4 0 -8 -11 -7 -24z"/>
<path d="M9412 4220 c-20 -32 -3 -45 24 -19 13 12 24 26 24 31 0 16 -36 7 -48
-12z"/>
<path d="M3547 4200 c6 -7 9 -19 6 -26 -3 -8 0 -14 7 -14 16 0 8 43 -10 48
-12 3 -12 2 -3 -8z"/>
<path d="M8085 4154 c-22 -34 -4 -56 19 -23 18 26 21 49 7 49 -5 0 -16 -12
-26 -26z"/>
<path d="M3930 4150 c0 -5 5 -10 10 -10 6 0 10 5 10 10 0 6 -4 10 -10 10 -5 0
-10 -4 -10 -10z"/>
<path d="M3168 4098 c3 -18 11 -42 19 -53 14 -18 14 -17 8 20 -8 51 -34 82
-27 33z"/>
<path d="M8125 4080 c-3 -5 -1 -10 4 -10 6 0 11 5 11 10 0 6 -2 10 -4 10 -3 0
-8 -4 -11 -10z"/>
<path d="M4881 4059 c-27 -22 -23 -36 7 -20 20 10 38 41 24 41 -4 -1 -18 -10
-31 -21z"/>
<path d="M8010 4064 c0 -8 5 -12 10 -9 6 4 8 11 5 16 -9 14 -15 11 -15 -7z"/>
<path d="M5450 4050 c0 -5 5 -10 10 -10 6 0 10 5 10 10 0 6 -4 10 -10 10 -5 0
-10 -4 -10 -10z"/>
<path d="M6610 4045 c0 -3 9 -14 20 -25 14 -14 28 -18 45 -14 32 8 31 16 -2
32 -27 12 -63 16 -63 7z"/>
<path d="M6855 4040 c-3 -5 -1 -10 4 -10 6 0 11 5 11 10 0 6 -2 10 -4 10 -3 0
-8 -4 -11 -10z"/>
<path d="M8577 4020 c3 -11 7 -20 9 -20 2 0 4 9 4 20 0 11 -4 20 -9 20 -5 0
-7 -9 -4 -20z"/>
<path d="M7617 3980 c-5 -19 -3 -21 21 -15 33 8 53 25 30 25 -9 0 -23 3 -31 6
-9 3 -16 -3 -20 -16z"/>
<path d="M4037 3983 c-4 -3 7 -15 24 -25 37 -23 47 -18 22 11 -18 21 -34 26
-46 14z"/>
<path d="M7937 3951 c-24 -41 -21 -48 8 -21 14 13 25 29 25 37 0 22 -15 15
-33 -16z"/>
<path d="M3700 3940 c0 -5 5 -10 11 -10 5 0 7 5 4 10 -3 6 -8 10 -11 10 -2 0
-4 -4 -4 -10z"/>
<path d="M8280 3924 c0 -12 7 -27 15 -34 19 -16 19 -3 0 30 -13 24 -14 24 -15
4z"/>
<path d="M9256 3924 c-24 -17 -16 -27 12 -17 13 5 18 13 14 20 -5 8 -12 8 -26
-3z"/>
<path d="M9180 3900 c0 -11 5 -20 10 -20 6 0 10 9 10 20 0 11 -4 20 -10 20 -5
0 -10 -9 -10 -20z"/>
<path d="M5250 3876 c0 -8 -10 -17 -22 -19 -13 -3 -4 -4 20 -4 44 1 50 5 30
25 -16 16 -28 15 -28 -2z"/>
<path d="M9220 3861 c0 -11 -6 -22 -12 -24 -8 -4 -7 -6 3 -6 9 -1 20 6 23 15
9 23 7 34 -4 34 -5 0 -10 -9 -10 -19z"/>
<path d="M4782 3796 c1 -10 8 -17 13 -17 15 1 12 24 -3 29 -9 3 -13 -2 -10
-12z"/>
<path d="M7950 3794 c0 -8 5 -12 10 -9 6 3 10 10 10 16 0 5 -4 9 -10 9 -5 0
-10 -7 -10 -16z"/>
<path d="M4470 3776 c0 -18 35 -22 45 -6 3 6 2 10 -4 10 -5 0 -16 3 -25 6 -11
4 -16 1 -16 -10z"/>
<path d="M4570 3781 c0 -5 14 -9 30 -9 17 1 30 5 30 10 0 4 -13 8 -30 8 -16 0
-30 -4 -30 -9z"/>
<path d="M8000 3780 c0 -5 5 -10 10 -10 6 0 10 5 10 10 0 6 -4 10 -10 10 -5 0
-10 -4 -10 -10z"/>
<path d="M9125 3760 c-4 -13 0 -31 9 -45 18 -28 27 -30 44 -13 15 15 -3 38
-29 38 -22 0 -24 11 -7 28 9 9 9 12 1 12 -7 0 -15 -9 -18 -20z"/>
<path d="M5497 3745 c3 -8 9 -12 14 -9 12 7 11 11 -5 17 -10 4 -13 1 -9 -8z"/>
<path d="M7923 3715 c2 -14 6 -25 10 -25 4 0 7 2 7 5 0 3 0 14 0 25 0 11 -5
20 -10 20 -6 0 -9 -11 -7 -25z"/>
<path d="M5245 3720 c-5 -8 31 -40 45 -40 6 0 10 8 10 19 0 18 -45 36 -55 21z"/>
<path d="M7775 3710 c-15 -17 -16 -20 -3 -20 9 0 19 7 22 16 10 25 1 27 -19 4z"/>
<path d="M8557 3713 c-12 -11 -8 -23 8 -23 8 0 15 7 15 15 0 16 -12 20 -23 8z"/>
<path d="M9246 3694 c-9 -23 -8 -24 19 -24 23 0 24 2 13 20 -15 24 -24 25 -32
4z"/>
<path d="M3255 3689 c-6 -15 -7 -44 -6 -123 0 -15 5 -33 10 -40 5 -6 14 -37
20 -69 11 -62 26 -97 41 -97 5 0 6 10 2 23 -9 29 -8 53 6 101 9 32 9 43 -3 56
-7 8 -25 49 -38 90 -17 50 -27 70 -32 59z"/>
<path d="M4020 3670 c0 -10 9 -24 20 -30 23 -12 27 -1 10 31 -14 25 -30 24
-30 -1z"/>
<path d="M7962 3671 c4 -13 18 -16 19 -4 0 4 -5 9 -11 12 -7 2 -11 -2 -8 -8z"/>
<path d="M8311 3661 c-8 -5 -10 -14 -6 -21 6 -9 10 -8 17 4 12 21 7 28 -11 17z"/>
<path d="M9210 3660 c0 -5 5 -10 11 -10 5 0 7 5 4 10 -3 6 -8 10 -11 10 -2 0
-4 -4 -4 -10z"/>
<path d="M4545 3620 c27 -12 43 -12 25 0 -8 5 -22 9 -30 9 -10 0 -8 -3 5 -9z"/>
<path d="M9220 3600 c0 -5 5 -10 10 -10 6 0 10 5 10 10 0 6 -4 10 -10 10 -5 0
-10 -4 -10 -10z"/>
<path d="M8050 3564 c0 -8 5 -12 10 -9 6 3 10 10 10 16 0 5 -4 9 -10 9 -5 0
-10 -7 -10 -16z"/>
<path d="M9200 3555 c0 -8 9 -19 20 -25 15 -8 20 -8 20 2 0 7 -9 19 -20 26
-17 10 -20 10 -20 -3z"/>
<path d="M7764 3553 c-16 -3 -20 -9 -17 -24 7 -26 18 -24 31 6 6 14 11 24 9
24 -1 -1 -12 -4 -23 -6z"/>
<path d="M6585 3539 c22 -4 51 -8 65 -8 20 -1 22 1 10 9 -8 5 -37 9 -65 9
l-50 -1 40 -9z"/>
<path d="M7757 3436 c-7 -47 -4 -66 9 -54 3 3 4 28 2 54 l-3 49 -8 -49z"/>
<path d="M8510 3471 c0 -5 7 -14 15 -21 16 -14 18 -10 9 14 -6 17 -24 22 -24
7z"/>
<path d="M4843 3404 c30 -16 44 -14 32 5 -3 6 -18 11 -33 11 l-27 -1 28 -15z"/>
<path d="M6735 3369 c-4 -6 -5 -12 -2 -15 2 -3 7 2 10 11 7 17 1 20 -8 4z"/>
<path d="M3146 3324 c-13 -18 -15 -29 -8 -36 16 -16 42 9 42 38 0 31 -10 30
-34 -2z"/>
<path d="M4095 3250 c-3 -5 3 -10 14 -10 11 0 23 5 26 10 3 6 -3 10 -14 10
-11 0 -23 -4 -26 -10z"/>
<path d="M6864 3225 c-7 -19 -14 -37 -14 -41 0 -3 -9 -17 -20 -31 -22 -29 -27
-57 -7 -50 6 2 12 10 12 18 0 8 8 13 18 11 14 -2 17 5 17 37 0 22 4 51 10 65
14 39 1 31 -16 -9z"/>
<path d="M7386 3164 c-4 -9 -4 -19 -1 -22 2 -3 7 3 11 12 4 9 4 19 1 22 -2 3
-7 -3 -11 -12z"/>
<path d="M5710 3145 c-8 -9 -8 -15 -2 -15 12 0 26 19 19 26 -2 2 -10 -2 -17
-11z"/>
<path d="M6731 3134 c0 -11 3 -14 6 -6 3 7 2 16 -1 19 -3 4 -6 -2 -5 -13z"/>
<path d="M5708 3083 c-33 -17 -35 -29 -8 -38 19 -6 75 1 93 12 8 5 -42 44 -53
42 -3 -1 -17 -8 -32 -16z"/>
<path d="M3850 3059 c0 -5 5 -7 10 -4 6 3 10 8 10 11 0 2 -4 4 -10 4 -5 0 -10
-5 -10 -11z"/>
<path d="M4523 3049 c1 -7 -12 -16 -30 -21 -18 -4 -34 -12 -37 -16 -2 -4 -9
-42 -15 -85 -12 -83 -3 -124 24 -113 8 3 17 0 21 -5 7 -12 36 40 31 55 -3 6 6
26 20 43 19 26 22 37 13 52 -5 11 -10 38 -10 60 0 23 -4 41 -10 41 -5 0 -9 -5
-7 -11z"/>
<path d="M4151 3020 c0 -33 1 -34 11 -12 8 17 8 26 0 34 -9 9 -12 4 -11 -22z"/>
<path d="M3940 3029 c0 -5 5 -7 10 -4 6 3 10 8 10 11 0 2 -4 4 -10 4 -5 0 -10
-5 -10 -11z"/>
<path d="M6870 2991 c0 -9 34 -21 60 -21 11 1 10 4 -4 15 -22 16 -56 20 -56 6z"/>
<path d="M5410 2970 c0 -5 9 -10 21 -10 11 0 17 5 14 10 -3 6 -13 10 -21 10
-8 0 -14 -4 -14 -10z"/>
<path d="M7762 2951 c-10 -6 -10 -10 3 -21 8 -7 15 -10 15 -7 0 3 3 12 6 21 7
17 -3 20 -24 7z"/>
<path d="M7080 2921 c0 -11 5 -23 10 -26 6 -4 10 5 10 19 0 14 -4 26 -10 26
-5 0 -10 -9 -10 -19z"/>
<path d="M7320 2909 c0 -5 5 -7 10 -4 6 3 10 8 10 11 0 2 -4 4 -10 4 -5 0 -10
-5 -10 -11z"/>
<path d="M4780 2886 c14 -9 32 -15 41 -16 9 0 28 -9 43 -21 14 -11 34 -18 44
-16 14 4 13 6 -6 12 -16 5 -21 13 -17 25 5 15 0 18 -29 18 -19 0 -49 3 -68 6
l-33 7 25 -15z"/>
<path d="M5135 2880 c-3 -5 1 -10 9 -10 9 0 16 5 16 10 0 6 -4 10 -9 10 -6 0
-13 -4 -16 -10z"/>
<path d="M4117 2854 c-4 -4 -7 -14 -7 -23 0 -11 3 -12 11 -4 6 6 10 16 7 23
-2 6 -7 8 -11 4z"/>
<path d="M7836 2780 c6 -54 12 -61 30 -35 13 17 13 20 -3 26 -10 3 -21 17 -25
30 -5 15 -6 7 -2 -21z"/>
<path d="M4377 2803 c-2 -5 -7 -21 -11 -38 -6 -28 -5 -29 9 -11 8 11 15 28 15
38 0 19 -6 23 -13 11z"/>
<path d="M7330 2790 c0 -5 5 -10 11 -10 5 0 7 5 4 10 -3 6 -8 10 -11 10 -2 0
-4 -4 -4 -10z"/>
<path d="M7682 2768 c-21 -21 -13 -38 17 -38 27 0 28 1 18 25 -14 28 -18 30
-35 13z"/>
<path d="M7643 2713 c-19 -7 -16 -26 8 -52 30 -32 46 -13 25 28 -9 17 -18 31
-19 30 -1 0 -8 -3 -14 -6z"/>
<path d="M5163 2663 c9 -2 25 -2 35 0 9 3 1 5 -18 5 -19 0 -27 -2 -17 -5z"/>
<path d="M6947 2604 c-4 -4 -7 -17 -7 -28 1 -19 1 -20 11 -3 11 19 8 43 -4 31z"/>
<path d="M8025 2571 c-3 -5 -1 -12 5 -16 5 -3 10 1 10 9 0 18 -6 21 -15 7z"/>
<path d="M7570 2549 c0 -5 5 -7 10 -4 6 3 10 8 10 11 0 2 -4 4 -10 4 -5 0 -10
-5 -10 -11z"/>
<path d="M7730 2520 c-8 -5 -12 -12 -9 -15 4 -3 12 1 19 10 14 17 11 19 -10 5z"/>
<path d="M6940 2511 c0 -5 5 -13 10 -16 6 -3 10 -2 10 4 0 5 -4 13 -10 16 -5
3 -10 2 -10 -4z"/>
<path d="M5300 2400 c0 -5 11 -10 25 -10 14 0 25 5 25 10 0 6 -11 10 -25 10
-14 0 -25 -4 -25 -10z"/>
<path d="M7670 2390 c0 -5 5 -10 10 -10 6 0 10 5 10 10 0 6 -4 10 -10 10 -5 0
-10 -4 -10 -10z"/>
<path d="M5512 2338 c5 -15 48 -18 48 -3 0 6 -11 11 -26 13 -18 3 -25 0 -22
-10z"/>
<path d="M4807 2258 c-8 -30 -1 -35 12 -9 6 11 7 22 2 25 -5 3 -11 -4 -14 -16z"/>
<path d="M5358 2213 c7 -3 16 -2 19 1 4 3 -2 6 -13 5 -11 0 -14 -3 -6 -6z"/>
</g>
</svg>
